<svg width="48" height="48" viewBox="0 0 48 48" fill="none" xmlns="http://www.w3.org/2000/svg">
<rect width="48" height="48" rx="12" fill="#1F242C"/>
<path fill-rule="evenodd" clip-rule="evenodd" d="M23.0455 15H24.9545C26.0089 15 26.8636 15.8059 26.8636 16.8C26.8636 17.9376 28.0808 18.6609 29.08 18.117L29.1815 18.0617C30.0946 17.5647 31.2622 17.8597 31.7894 18.7206L32.7439 20.2794C33.2711 21.1404 32.9582 22.2412 32.0451 22.7383C31.0455 23.2824 31.0455 24.7176 32.0451 25.2617C32.9582 25.7588 33.2711 26.8596 32.7439 27.7206L31.7894 29.2794C31.2622 30.1403 30.0946 30.4353 29.1815 29.9383L29.08 29.883C28.0808 29.3391 26.8636 30.0624 26.8636 31.2C26.8636 32.1941 26.0089 33 24.9545 33H23.0455C21.9911 33 21.1364 32.1941 21.1364 31.2C21.1364 30.0624 19.9192 29.3391 18.92 29.883L18.8185 29.9383C17.9054 30.4353 16.7378 30.1404 16.2106 29.2794L15.2561 27.7206C14.7289 26.8597 15.0418 25.7588 15.9549 25.2617C16.9545 24.7176 16.9545 23.2824 15.9549 22.7383C15.0418 22.2412 14.7289 21.1403 15.2561 20.2794L16.2106 18.7206C16.7378 17.8596 17.9054 17.5647 18.8185 18.0617L18.92 18.117C19.9192 18.6609 21.1364 17.9376 21.1364 16.8C21.1364 15.8059 21.9911 15 23.0455 15ZM24 27C25.6569 27 27 25.6569 27 24C27 22.3431 25.6569 21 24 21C22.3432 21 21 22.3431 21 24C21 25.6569 22.3432 27 24 27Z" fill="#768398"/>
</svg>
