<svg width="48" height="48" viewBox="0 0 48 48" fill="none" xmlns="http://www.w3.org/2000/svg">
<rect width="48" height="48" rx="12" fill="#1F242C"/>
<path fill-rule="evenodd" clip-rule="evenodd" d="M22 13.25C22.4142 13.25 22.75 13.5858 22.75 14V16H25.25V14C25.25 13.5858 25.5858 13.25 26 13.25C26.4142 13.25 26.75 13.5858 26.75 14V16H28C30.2091 16 32 17.7909 32 20V21.25H34C34.4142 21.25 34.75 21.5858 34.75 22C34.75 22.4142 34.4142 22.75 34 22.75H32V25.25H34C34.4142 25.25 34.75 25.5858 34.75 26C34.75 26.4142 34.4142 26.75 34 26.75H32V28C32 30.2091 30.2091 32 28 32H26.75V34C26.75 34.4142 26.4142 34.75 26 34.75C25.5858 34.75 25.25 34.4142 25.25 34V32H22.75V34C22.75 34.4142 22.4142 34.75 22 34.75C21.5858 34.75 21.25 34.4142 21.25 34V32H20C17.7909 32 16 30.2091 16 28V26.75H14C13.5858 26.75 13.25 26.4142 13.25 26C13.25 25.5858 13.5858 25.25 14 25.25H16V22.75H14C13.5858 22.75 13.25 22.4142 13.25 22C13.25 21.5858 13.5858 21.25 14 21.25H16V20C16 17.7909 17.7909 16 20 16H21.25V14C21.25 13.5858 21.5858 13.25 22 13.25ZM23 21C21.8954 21 21 21.8954 21 23V25C21 26.1046 21.8954 27 23 27H25C26.1046 27 27 26.1046 27 25V23C27 21.8954 26.1046 21 25 21H23Z" fill="#768398"/>
</svg>
