<svg width="48" height="48" viewBox="0 0 48 48" fill="none" xmlns="http://www.w3.org/2000/svg">
<rect width="48" height="48" rx="12" fill="#1F242C"/>
<path fill-rule="evenodd" clip-rule="evenodd" d="M22 23C24.2091 23 26 21.2091 26 19C26 16.7909 24.2091 15 22 15C19.7909 15 18 16.7909 18 19C18 21.2091 19.7909 23 22 23ZM22 33C25.866 33 29 31.2091 29 29C29 26.7909 25.866 25 22 25C18.134 25 15 26.7909 15 29C15 31.2091 18.134 33 22 33ZM25.9614 22.8155C26.9141 21.8265 27.5 20.4817 27.5 19.0001C27.5 18.2955 27.3675 17.6218 27.1261 17.0027C28.7244 17.0688 29.9999 18.3855 29.9999 20.0001C29.9999 21.6569 28.6568 23.0001 26.9999 23.0001C26.6349 23.0001 26.285 22.9349 25.9614 22.8155ZM30.4999 28.9999C30.4999 29.5387 30.3802 30.0595 30.157 30.5515C31.8634 30.0226 32.9999 29.0776 32.9999 27.9999C32.9999 26.4937 30.7799 25.2468 27.8867 25.0325C29.4974 26.0333 30.4999 27.4409 30.4999 28.9999Z" fill="#768398"/>
</svg>
