<svg width="153" height="20" viewBox="0 0 153 20" fill="none" xmlns="http://www.w3.org/2000/svg">
<g clip-path="url(#clip0_1734_2147)">
<path d="M21.987 20H36.6667V16.2696H26.4364V11.6928H34.913V7.96238H26.4364V3.73041H36.7317V0H21.987V20ZM54.3343 12.6019L44.7211 0H38.0957L40.1743 2.53919V20.0627H44.5912V6.9279L54.5292 20H58.7837V0H54.3343V12.6019ZM15.2968 9.71787C17.2454 9.37304 18.8692 7.61756 18.8692 5.14107C18.8692 2.47649 16.8557 0 12.861 0H0L2.01359 2.47649V20.0313H13.3156C17.3103 20.0313 19.3889 17.6176 19.3889 14.6082C19.2914 12.1317 17.5377 10 15.2968 9.71787ZM6.43048 3.76176H11.9841C13.478 3.76176 14.4199 4.60815 14.4199 5.86207C14.4199 7.11599 13.478 7.96238 11.9841 7.96238H6.43048V3.76176ZM12.1789 16.3009H6.43048V11.6928H12.1789C13.8678 11.6928 14.8096 12.7273 14.8096 13.9812C14.8096 15.4232 13.8028 16.2696 12.1789 16.3009ZM123.673 12.6019H125.979V14.953C124.777 15.8934 123.283 16.4263 121.724 16.4577C118.022 16.4577 115.424 13.7304 115.424 10.0627C115.424 6.39498 118.055 3.66771 121.724 3.66771C123.641 3.66771 125.427 4.6395 126.466 6.2069L129.974 4.32602C128.48 2.03762 125.849 0 121.692 0C115.814 0 110.942 3.9185 110.942 10C110.942 16.0815 115.749 20 121.692 20C124.94 20.0627 128.025 18.7147 130.169 16.395V8.99687H120.685L123.673 12.6019ZM103.7 12.6019L94.0539 0H87.461L89.5071 2.53919V20.0627H93.9565V6.9279L103.894 20H108.117V0H103.7V12.6019ZM144.848 0H136.307L138.353 2.53919L137.996 3.51097L131.37 20.0627H136.372L137.671 16.6771H146.602L147.901 20.0627H152.903L144.848 0ZM138.807 12.9154L142.055 4.29467L145.303 12.9154H138.807ZM80.446 0H84.8953V20.094H80.446V0ZM76.906 3.44828V0H61.2844V3.73041H71.0925L61.2844 16.5831V20H77.0683V16.2696H67.0329L76.906 3.44828Z" fill="#1F242C"/>
</g>
<defs>
<clipPath id="clip0_1734_2147">
<rect width="153" height="20" fill="white"/>
</clipPath>
</defs>
</svg>
