<svg width="162" height="32" viewBox="0 0 162 32" fill="none" xmlns="http://www.w3.org/2000/svg">
<g clip-path="url(#clip0_1734_2160)">
<path d="M7.3089 16L3.672 19.5933L0 16L3.67065 12.3747L7.3089 16ZM16.2 7.21867L22.464 13.4053L26.136 9.78133L16.2 0L6.264 9.81333L9.936 13.4373L16.2 7.21867ZM28.7293 12.3747L25.0911 16L28.7617 19.6253L32.431 16L28.7293 12.3747ZM16.2 24.7813L9.936 18.5627L6.264 22.188L16.2 32L26.136 22.1867L22.464 18.5627L16.2 24.7813ZM16.2 19.5947L19.8706 15.968L16.2 12.376L12.5293 16L16.2 19.5933V19.5947ZM54.8019 19.968V19.9067C54.8019 17.5627 53.5356 16.3747 51.4795 15.5933C52.7445 14.9067 53.8204 13.78 53.8204 11.812V11.7507C53.8204 9 51.574 7.21867 47.9668 7.21867H39.7089V24.7507H48.1572C52.1748 24.7813 54.8019 23.156 54.8019 19.9693V19.968ZM49.9284 12.4693C49.9284 13.7813 48.8524 14.312 47.1123 14.312H43.5064V10.5933H47.3661C49.0117 10.5933 49.9284 11.2493 49.9284 12.4067V12.4693ZM50.9098 19.4693C50.9098 20.7813 49.8663 21.376 48.1558 21.376H43.5064V17.5307H48.0303C50.0242 17.5307 50.9098 18.2507 50.9098 19.4373V19.4693ZM62.9964 24.7813V7.21867H59.0733V24.7507H62.9964V24.7813ZM84.0064 24.7813V7.21867H80.1454V18.032L71.824 7.21867H68.2168V24.7507H72.0779V13.6253L80.6841 24.7813H84.0051H84.0064ZM105.647 24.7813L98.0235 7.12533H94.4176L86.7915 24.7813H90.8104L92.4237 20.844H99.9229L101.536 24.7813H105.65H105.647ZM98.5284 17.4373H93.8142L96.1875 11.7507L98.5284 17.4373ZM124.285 24.7813V7.21867H120.424V18.032L112.103 7.21867H108.495V24.7507H112.356V13.6253L120.963 24.7813H124.284H124.285ZM144.439 21.9373L141.94 19.4693C140.547 20.7187 139.313 21.5307 137.257 21.5307C134.22 21.5307 132.1 19.0307 132.1 16.0307V15.9373C132.1 12.9373 134.251 10.4693 137.257 10.4693C139.028 10.4693 140.422 11.2187 141.813 12.4373L144.312 9.59333C142.668 8 140.674 6.87467 137.321 6.87467C131.879 6.87467 128.05 10.968 128.05 15.9373V16C128.05 21.0307 131.941 25.0307 137.163 25.0307C140.58 25.0627 142.605 23.8747 144.439 21.9373ZM161.114 24.7813V21.344H151.463V17.656H159.848V14.2187H151.463V10.656H160.987V7.21867H147.604V24.7507H161.114V24.7813Z" fill="#1F242C"/>
</g>
<defs>
<clipPath id="clip0_1734_2160">
<rect width="162" height="32" fill="white"/>
</clipPath>
</defs>
</svg>
