<svg width="208" height="36" viewBox="0 0 208 36" fill="none" xmlns="http://www.w3.org/2000/svg">
<g clip-path="url(#clip0_1734_2156)">
<path d="M35.2139 17.9317V17.8622C35.1792 8.02676 27.2777 0 17.607 0C7.93619 0 0 8.02676 0 17.9317C0 27.8379 7.90029 35.8485 17.607 35.8485C22.061 35.8516 26.3448 34.1327 29.567 31.0494C29.8843 30.7587 30.0735 30.3535 30.0929 29.9229C30.1123 29.4923 29.9603 29.0717 29.6703 28.7534C29.3804 28.4352 28.9762 28.2456 28.5468 28.2261C28.1174 28.2067 27.6978 28.3591 27.3805 28.6498L27.3458 28.6846C25.9555 30.0097 24.3125 31.0396 22.5154 31.7122C20.7182 32.3849 18.8041 32.6865 16.8878 32.599C14.9715 32.5115 13.0926 32.0366 11.364 31.2029C9.63528 30.3691 8.09245 29.1938 6.8281 27.7473L14.3495 15.6538V21.2499C14.3495 23.9239 15.3895 24.7941 16.2636 25.0374C17.1377 25.2807 18.4489 25.1044 19.869 22.8463L23.9955 16.128C24.1057 15.9319 24.2332 15.7457 24.3744 15.5706V18.9782C24.3744 21.4796 25.3797 23.4956 27.1118 24.4676C27.9114 24.9041 28.8139 25.1153 29.7236 25.0788C30.6333 25.0423 31.5162 24.7595 32.2784 24.2603C34.2791 22.9581 35.3538 20.6777 35.2139 17.9317ZM30.6379 21.451C30.3601 21.6429 30.0361 21.7569 29.6996 21.7811C29.363 21.8054 29.0262 21.739 28.7238 21.5888C28.0305 21.173 27.6132 20.2357 27.6132 18.9497V15.0108C27.6132 13.1363 26.8852 11.7794 25.6385 11.4343C23.5226 10.7938 21.9304 13.4143 21.3398 14.3876L17.607 20.3983V12.9972C17.5723 11.2953 17.0164 10.2873 15.9764 9.97324C15.283 9.76593 14.243 9.87145 13.239 11.4008L4.88552 24.8139C3.77424 22.6908 3.19186 20.3295 3.1881 17.9317C3.1881 9.83421 9.66829 3.26607 17.607 3.26607C25.5456 3.26607 32.0258 9.83421 32.0258 17.9317V18.0025C32.1088 19.5641 31.6086 20.8179 30.6391 21.4411L30.6379 21.451ZM59.7542 11.8154C59.9838 11.9629 60.1758 12.1625 60.3145 12.3979C60.4532 12.6334 60.5348 12.8982 60.5528 13.171C60.5504 13.5699 60.3936 13.9523 60.1155 14.2376C59.8375 14.5229 59.4598 14.6888 59.0621 14.7004C58.8735 14.686 58.687 14.6506 58.5062 14.5949C57.5352 13.8646 56.3573 13.4636 55.1435 13.4503C52.1981 13.4503 50.1887 15.8462 50.1887 18.8342C50.1887 21.8222 52.234 24.187 55.1435 24.187C56.5421 24.185 57.8847 23.6364 58.8863 22.6577C59.1413 22.4777 59.4434 22.3808 59.7542 22.3796C60.0029 22.3768 60.248 22.4403 60.4642 22.5637C60.6804 22.687 60.86 22.8658 60.9847 23.0816C61.1094 23.2974 61.1747 23.5426 61.1738 23.792C61.173 24.0414 61.1061 24.2861 60.9799 24.5011C60.8598 24.7121 60.689 24.8921 60.4822 25.0225C59.4674 25.8684 58.2647 26.4573 56.9753 26.7394C55.686 27.0215 54.3479 26.9886 53.0739 26.6434C51.7999 26.2982 50.6274 25.6509 49.6552 24.7561C48.6831 23.8613 47.9398 22.7451 47.4882 21.5019C47.0365 20.2586 46.8896 18.9246 47.06 17.6125C47.2303 16.3004 47.7129 15.0486 48.467 13.9627C49.2211 12.8768 50.2246 11.9887 51.3928 11.3732C52.561 10.7577 53.8598 10.433 55.1794 10.4263C56.8112 10.4015 58.4109 10.8857 59.7542 11.8154ZM68.0024 15.2801C66.4475 15.2735 64.9534 15.8852 63.8476 16.9812C62.7417 18.0772 62.1143 19.568 62.1029 21.127C62.1125 22.6947 62.7353 24.1959 63.8374 25.3079C64.9395 26.4199 66.4328 27.0538 67.9962 27.0732C71.0469 27.0732 73.6469 24.3273 73.6469 21.127C73.6469 17.9292 71.0877 15.2801 68.0024 15.2801ZM67.9677 24.1771C66.513 24.1771 65.2996 22.8563 65.2996 21.1531C65.2996 19.3817 66.513 18.3029 67.9677 18.3029C69.321 18.3029 70.4625 19.4164 70.4625 21.1531C70.4625 22.891 69.321 24.187 67.9677 24.187V24.1771ZM75.5931 25.2645V17.0615C75.5892 16.8488 75.6276 16.6375 75.706 16.4398C75.7844 16.2422 75.9013 16.0622 76.0499 15.9103C76.1984 15.7584 76.3757 15.6378 76.5713 15.5554C76.7669 15.473 76.9769 15.4305 77.189 15.4303C77.616 15.4359 78.0233 15.6105 78.3223 15.9161C78.6213 16.2217 78.7876 16.6335 78.785 17.0615V25.2645C78.7879 25.6928 78.6218 26.1049 78.3228 26.4107C78.0237 26.7166 77.6162 26.8914 77.189 26.897C76.7642 26.8845 76.3606 26.7075 76.0631 26.4031C75.7655 26.0988 75.5971 25.6907 75.5931 25.2645ZM75.3505 12.3368C75.3436 12.0892 75.3858 11.8427 75.4748 11.6116C75.5638 11.3805 75.6978 11.1695 75.8688 10.9907C76.0399 10.812 76.2448 10.6692 76.4714 10.5706C76.6981 10.472 76.942 10.4196 77.189 10.4164C77.4376 10.4193 77.6831 10.4713 77.9116 10.5694C78.1401 10.6675 78.3471 10.8098 78.5207 10.9882C78.6943 11.1665 78.8312 11.3774 78.9235 11.6088C79.0158 11.8402 79.0617 12.0876 79.0586 12.3368C79.0586 12.8297 78.8633 13.3024 78.5157 13.6509C78.1681 13.9994 77.6967 14.1952 77.2051 14.1952C76.7136 14.1952 76.2422 13.9994 75.8946 13.6509C75.547 13.3024 75.3505 12.8297 75.3505 12.3368ZM84.8826 20.8179V25.2645C84.8826 25.6889 84.7144 26.0959 84.4151 26.396C84.1159 26.6961 83.7099 26.8647 83.2867 26.8647C82.8634 26.8647 82.4575 26.6961 82.1582 26.396C81.8589 26.0959 81.6908 25.6889 81.6908 25.2645V16.6804C81.6908 16.3532 81.8204 16.0393 82.0512 15.8079C82.282 15.5765 82.595 15.4465 82.9214 15.4465C83.2478 15.4465 83.5609 15.5765 83.7916 15.8079C84.0224 16.0393 84.1521 16.3532 84.1521 16.6804C84.6069 16.2144 85.1545 15.8498 85.7593 15.6102C86.3641 15.3707 87.0125 15.2616 87.6621 15.2901C90.8527 15.2901 92.2728 17.6884 92.2728 20.4343V25.2645C92.2728 25.6889 92.1046 26.0959 91.8053 26.396C91.506 26.6961 91.1001 26.8647 90.6769 26.8647C90.2536 26.8647 89.8477 26.6961 89.5484 26.396C89.2491 26.0959 89.081 25.6889 89.081 25.2645V20.8179C89.081 19.4263 88.9089 18.2582 86.8982 18.2582C85.4793 18.2582 84.8888 19.4388 84.8888 20.8179H84.8826ZM102.595 22.5199C102.433 22.5203 102.273 22.4825 102.128 22.4096C101.984 22.3367 101.858 22.2308 101.762 22.1003L98.0534 18.0695V25.2645C98.0594 25.4784 98.0225 25.6912 97.945 25.8904C97.8675 26.0897 97.751 26.2714 97.6022 26.4247C97.4535 26.578 97.2756 26.6999 97.0791 26.7831C96.8826 26.8664 96.6715 26.9093 96.4581 26.9093C96.2448 26.9093 96.0337 26.8664 95.8372 26.7831C95.6407 26.6999 95.4628 26.578 95.3141 26.4247C95.1653 26.2714 95.0488 26.0897 94.9713 25.8904C94.8938 25.6912 94.8569 25.4784 94.8629 25.2645V11.0148C94.9121 10.8966 94.9937 10.7948 95.0982 10.7212C95.2027 10.6476 95.3259 10.6052 95.4534 10.5989C95.7283 10.6457 95.9757 10.7941 96.1468 11.0148L102.075 17.6884C102.135 17.7744 102.212 17.8472 102.302 17.9022C102.391 17.9573 102.491 17.9935 102.595 18.0087C102.801 17.9686 102.986 17.8548 103.115 17.6884L109.04 11.0148C109.122 10.9029 109.226 10.8085 109.345 10.7371C109.463 10.6657 109.595 10.6187 109.732 10.5989C109.862 10.5957 109.99 10.6343 110.096 10.7092C110.202 10.7841 110.282 10.8912 110.323 11.0148V25.2658C110.327 25.4785 110.289 25.6898 110.21 25.8875C110.132 26.0851 110.015 26.2651 109.866 26.417C109.718 26.5689 109.54 26.6895 109.345 26.7719C109.149 26.8543 108.939 26.8968 108.727 26.897C108.3 26.8908 107.893 26.7157 107.595 26.41C107.296 26.1042 107.13 25.6925 107.132 25.2645V18.0695L103.421 22.1003C103.206 22.3397 102.91 22.4894 102.591 22.5199H102.595ZM132.575 18.2458H132.227C130.218 18.3476 129.838 19.4971 129.838 20.8055V25.2521C129.837 25.6764 129.669 26.0832 129.37 26.3832C129.071 26.6833 128.665 26.8519 128.242 26.8523C127.819 26.8516 127.413 26.6826 127.114 26.3824C126.815 26.0821 126.647 25.6752 126.647 25.2509V16.6817C126.648 16.3543 126.778 16.0405 127.009 15.809C127.24 15.5775 127.553 15.4471 127.879 15.4465C128.206 15.4471 128.518 15.5775 128.749 15.8091C128.98 16.0406 129.109 16.3544 129.11 16.6817C130.287 15.5681 131.258 15.3248 132.227 15.2888H132.547C132.936 15.2992 133.305 15.4611 133.577 15.7401C133.848 16.0192 134.001 16.3935 134.002 16.7834C134.001 17.1645 133.852 17.5304 133.587 17.8034C133.322 18.0765 132.961 18.2351 132.581 18.2458H132.575ZM144.879 24.4999C145.026 24.7295 145.11 24.9927 145.122 25.2645C145.105 25.6834 144.931 26.0803 144.635 26.3767C144.34 26.6731 143.944 26.8473 143.526 26.8647C142.974 26.8647 142.486 26.4451 142.106 25.9585L138.434 21.6782V25.2285C138.434 25.6528 138.266 26.0596 137.967 26.3596C137.667 26.6595 137.262 26.8281 136.839 26.8281C136.416 26.8281 136.01 26.6595 135.711 26.3596C135.411 26.0596 135.243 25.6528 135.243 25.2285V12.2003C135.243 11.8837 135.336 11.574 135.511 11.3106C135.686 11.0472 135.935 10.8418 136.227 10.7207C136.519 10.5995 136.84 10.5679 137.149 10.63C137.459 10.6921 137.743 10.845 137.966 11.0694C138.266 11.3686 138.434 11.777 138.434 12.199V20.3301L142.106 16.2658C142.486 15.8474 142.939 15.3968 143.492 15.3968C143.896 15.4147 144.279 15.5863 144.562 15.8767C144.846 16.1672 145.008 16.5548 145.017 16.961C145.018 17.2188 144.946 17.4716 144.809 17.6897L141.899 20.8887L144.879 24.5048V24.4999ZM164.152 27.0372H163.284C160.858 27.0372 159.436 25.9585 159.436 22.171V18.2458H158.606C158.215 18.2458 157.84 18.09 157.564 17.8128C157.287 17.5355 157.132 17.1594 157.132 16.7673C157.132 16.3752 157.287 15.9991 157.564 15.7219C157.84 15.4446 158.215 15.2888 158.606 15.2888H159.423V12.2661C159.416 11.9454 159.505 11.63 159.679 11.361C159.854 11.0921 160.105 10.8823 160.4 10.759C160.596 10.6771 160.806 10.6349 161.018 10.6349C161.444 10.6421 161.851 10.8172 162.149 11.1224C162.448 11.4277 162.615 11.8385 162.614 12.2661V15.2801H163.929C164.314 15.2918 164.679 15.455 164.945 15.7345C165.212 16.0139 165.357 16.3871 165.351 16.7735C165.338 17.1511 165.185 17.5103 164.922 17.7808C164.659 18.0512 164.305 18.2135 163.929 18.2359H162.614V21.5379C162.614 23.7265 162.715 24.1771 163.686 24.1771H164.139C164.516 24.1787 164.877 24.3298 165.143 24.5973C165.409 24.8647 165.559 25.2269 165.559 25.6047C165.551 25.9796 165.398 26.3369 165.134 26.6021C164.869 26.8673 164.513 27.02 164.139 27.0286L164.152 27.0372ZM179.573 11.8154C179.803 11.9633 179.994 12.1629 180.133 12.3983C180.271 12.6337 180.353 12.8984 180.371 13.171C180.369 13.57 180.212 13.9526 179.934 14.238C179.656 14.5233 179.278 14.6891 178.88 14.7004C178.692 14.6852 178.506 14.6498 178.325 14.5949C177.356 13.8641 176.178 13.463 174.965 13.4503C172.017 13.4503 170.007 15.8462 170.007 18.8342C170.007 21.8222 172.052 24.187 174.965 24.187C176.364 24.185 177.706 23.6364 178.708 22.6577C178.962 22.4789 179.264 22.3821 179.573 22.3796C179.761 22.3779 179.946 22.4134 180.12 22.4841C180.293 22.5549 180.451 22.6594 180.584 22.7917C180.804 23.0123 180.945 23.3 180.984 23.6097C181.024 23.9193 180.96 24.2333 180.802 24.5023C180.68 24.7144 180.508 24.8928 180.3 25.0212C179.286 25.8656 178.084 26.453 176.796 26.7339C175.508 27.0147 174.171 26.9808 172.899 26.635C170.978 26.1144 169.311 24.9132 168.206 23.2542C167.101 21.5952 166.634 19.5909 166.89 17.6127C167.146 15.6341 168.108 13.8156 169.599 12.4942C171.09 11.1727 173.008 10.4381 174.997 10.4263C176.63 10.3951 178.232 10.8812 179.573 11.8154ZM122.559 15.3956C122.397 15.3955 122.236 15.4281 122.087 15.4913C121.937 15.5545 121.802 15.647 121.688 15.7635C121.575 15.88 121.486 16.0181 121.427 16.1696C121.368 16.3211 121.339 16.483 121.343 16.6457L121.276 17.0305C120.819 16.4875 120.252 16.0485 119.612 15.7428C118.972 15.4371 118.274 15.2718 117.566 15.2578C114.448 15.2578 112.196 17.897 112.196 21.0923C112.196 24.2888 114.412 27.0372 117.394 27.0372C118.642 27.0372 120.616 26.4799 121.242 25.2645L121.312 25.6457C121.309 25.8093 121.339 25.9718 121.401 26.1232C121.463 26.2746 121.555 26.4117 121.672 26.526C121.789 26.6402 121.928 26.7292 122.081 26.7875C122.233 26.8457 122.396 26.872 122.559 26.8647C122.723 26.865 122.885 26.8329 123.037 26.7701C123.189 26.7073 123.326 26.6152 123.442 26.4989C123.558 26.3827 123.65 26.2446 123.713 26.0926C123.775 25.9407 123.807 25.7778 123.807 25.6134V16.6556C123.802 16.3244 123.67 16.008 123.437 15.7729C123.204 15.5379 122.889 15.4026 122.559 15.3956ZM117.914 24.187C116.494 24.187 115.383 22.8339 115.383 21.163C115.383 19.4934 116.526 18.283 117.914 18.283C119.3 18.283 120.55 19.4288 120.55 21.163C120.55 22.8972 119.335 24.187 117.914 24.187ZM156.526 20.885C156.456 17.3048 154.133 15.2888 151.05 15.2888C147.222 15.2888 145.606 18.0695 145.606 21.2686C145.606 25.3353 148.278 27.072 151.501 27.072C152.713 27.072 153.996 26.897 154.965 26.167C155.166 26.0488 155.335 25.8821 155.456 25.6821C155.577 25.482 155.647 25.2549 155.658 25.0212C155.661 24.6773 155.528 24.3461 155.289 24.0991C155.051 23.852 154.725 23.7089 154.382 23.7004C154.088 23.7029 153.801 23.7873 153.552 23.9437C152.895 24.2252 152.186 24.3669 151.471 24.3596C150.674 24.3596 148.836 24.0393 148.836 22.1363H155.274C155.604 22.1299 155.918 21.9962 156.151 21.763C156.385 21.5298 156.519 21.2152 156.526 20.885ZM148.829 20.0781C148.829 18.725 150.253 18.2743 151.117 18.2743C151.982 18.2743 153.405 18.725 153.44 20.0781H148.829ZM192.289 15.3956C192.126 15.3957 191.966 15.4282 191.816 15.4913C191.667 15.5544 191.532 15.6468 191.418 15.763C191.305 15.8795 191.216 16.0177 191.157 16.1693C191.098 16.321 191.07 16.483 191.075 16.6457L191.006 17.0305C190.549 16.4874 189.982 16.0484 189.343 15.7427C188.703 15.437 188.006 15.2716 187.298 15.2578C184.178 15.2578 181.924 17.897 181.924 21.0923C181.924 24.2888 184.158 27.0372 187.122 27.0372C188.37 27.0372 190.348 26.4799 190.97 25.2645L191.041 25.6457C191.038 25.809 191.069 25.9712 191.132 26.1222C191.194 26.2733 191.286 26.4101 191.402 26.5246C191.519 26.639 191.658 26.7282 191.81 26.7867C191.963 26.8452 192.125 26.8717 192.289 26.8647C192.535 26.8646 192.777 26.7912 192.982 26.6538C193.187 26.5164 193.348 26.3211 193.442 26.0926C193.504 25.9411 193.537 25.7785 193.537 25.6134V16.6556C193.531 16.3246 193.398 16.0085 193.166 15.7736C192.933 15.5387 192.619 15.4032 192.289 15.3956ZM187.642 24.187C186.258 24.187 185.113 22.8339 185.113 21.163C185.113 19.4934 186.223 18.283 187.642 18.283C189.062 18.283 190.278 19.4288 190.278 21.163C190.278 22.8972 189.072 24.187 187.649 24.187H187.642ZM202.623 15.2801C201.928 15.2674 201.238 15.3964 200.595 15.6593C199.951 15.9222 199.368 16.3136 198.88 16.8095C198.88 16.0126 198.36 15.4204 197.668 15.4204C197.504 15.4199 197.341 15.4519 197.19 15.5146C197.038 15.5773 196.9 15.6694 196.784 15.7857C196.667 15.9019 196.575 16.04 196.513 16.1921C196.45 16.3442 196.417 16.5071 196.418 16.6717V30.1568C196.419 30.5806 196.587 30.9867 196.886 31.2863C197.185 31.586 197.59 31.7547 198.012 31.7557C198.435 31.7554 198.841 31.5869 199.14 31.2871C199.439 30.9874 199.608 30.5809 199.608 30.1568V26.1C200.472 26.7579 201.86 27.0372 202.799 27.0596C205.815 27.0596 208 24.3149 208 21.1159C208 17.9156 205.71 15.2801 202.623 15.2801ZM202.24 24.1771C200.82 24.1771 199.608 22.8985 199.608 21.1543C199.608 19.4102 200.82 18.2743 202.24 18.2743C203.66 18.2743 204.771 19.4201 204.771 21.1543C204.771 22.8327 203.664 24.187 202.24 24.187V24.1771Z" fill="#1F242C"/>
</g>
<defs>
<clipPath id="clip0_1734_2156">
<rect width="208" height="36" fill="white"/>
</clipPath>
</defs>
</svg>
