<svg width="153" height="32" viewBox="0 0 153 32" fill="none" xmlns="http://www.w3.org/2000/svg">
<g clip-path="url(#clip0_1743_648)">
<mask id="mask0_1743_648" style="mask-type:luminance" maskUnits="userSpaceOnUse" x="0" y="0" width="153" height="32">
<path d="M153 0H0V32H153V0Z" fill="white"/>
</mask>
<g mask="url(#mask0_1743_648)">
<path d="M41.5099 20.95C43.3626 20.95 44.6498 20.0405 45.3714 18.2216L48.0465 19.2091C47.4706 20.5936 46.624 21.6253 45.5068 22.3039C44.3965 22.9758 43.0642 23.3117 41.5099 23.3117C39.1506 23.3117 37.3256 22.6602 36.0349 21.3571C34.7513 20.0473 34.1094 18.2183 34.1094 15.8701C34.1094 13.515 34.7304 11.7064 35.9725 10.4439C37.2146 9.18163 39.0153 8.55048 41.3746 8.55048C43.0955 8.55048 44.4972 8.88984 45.5796 9.5685C46.6622 10.2404 47.422 11.2312 47.8591 12.5411L45.1529 13.2639C44.9239 12.5445 44.4729 11.9744 43.7998 11.5536C43.1336 11.1261 42.3461 10.9122 41.437 10.9122C40.0492 10.9122 38.9944 11.333 38.2728 12.1746C37.5581 13.0162 37.2007 14.248 37.2007 15.8701C37.2007 17.5192 37.5684 18.7782 38.304 19.6469C39.0465 20.5156 40.1151 20.95 41.5099 20.95ZM50.1282 23.1081V14.6789C50.1282 14.0749 50.1178 13.5727 50.097 13.1723C50.0831 12.765 50.0658 12.4054 50.045 12.0931H52.8344C52.8553 12.2153 52.8831 12.5886 52.9178 13.213C52.9524 13.8306 52.9698 14.2412 52.9698 14.4448H53.0115C53.2959 13.6711 53.5492 13.1282 53.7712 12.816C53.9933 12.497 54.257 12.2628 54.5623 12.1135C54.8676 11.9575 55.2493 11.8794 55.7073 11.8794C56.082 11.8794 56.3838 11.9303 56.6128 12.0321V14.4244C56.1409 14.3226 55.7246 14.2717 55.3638 14.2717C54.6351 14.2717 54.0662 14.5602 53.6568 15.1371C53.2543 15.7139 53.0531 16.5691 53.0531 17.7025V23.1081H50.1282ZM59.8916 27.4347C59.1907 27.4347 58.5765 27.3906 58.0492 27.3024V25.2663C58.417 25.3207 58.7535 25.3478 59.0588 25.3478C59.4752 25.3478 59.8186 25.2833 60.0893 25.1544C60.3668 25.0254 60.6132 24.8116 60.8283 24.513C61.0504 24.2144 61.2967 23.7088 61.5673 22.9961L57.1124 12.0931H60.2038L61.9733 17.2546C62.2508 17.9943 62.6012 19.1277 63.0245 20.6547L63.2848 19.6876L63.9613 17.2952L65.6267 12.0931H68.6868L64.232 23.6884C63.6352 25.1 63.0142 26.0774 62.3687 26.6203C61.7304 27.1633 60.9046 27.4347 59.8916 27.4347ZM80.9586 17.5497C80.9586 19.389 80.5804 20.8108 79.8241 21.8152C79.0746 22.8129 78.013 23.3117 76.639 23.3117C75.848 23.3117 75.1575 23.1454 74.5677 22.8129C73.9848 22.4736 73.5372 21.9883 73.2249 21.3571H73.1625C73.2042 21.5608 73.2249 22.1784 73.2249 23.2099V27.4347H70.3001V14.628C70.3001 13.5896 70.2724 12.7447 70.2169 12.0931H73.0584C73.0931 12.2153 73.1209 12.4562 73.1417 12.816C73.1695 13.1757 73.1834 13.5319 73.1834 13.8849H73.2249C73.8842 12.5343 75.0846 11.859 76.8263 11.859C78.1378 11.859 79.1544 12.3544 79.8761 13.3453C80.5978 14.3294 80.9586 15.7309 80.9586 17.5497ZM77.9089 17.5497C77.9089 15.0793 77.1352 13.8442 75.5877 13.8442C74.8106 13.8442 74.2138 14.1767 73.7974 14.8418C73.388 15.5069 73.1834 16.4367 73.1834 17.6311C73.1834 18.8189 73.388 19.7385 73.7974 20.3901C74.2138 21.0348 74.8036 21.3571 75.567 21.3571C77.1282 21.3571 77.9089 20.088 77.9089 17.5497ZM86.2151 23.2914C85.3545 23.2914 84.6918 23.064 84.2269 22.6093C83.762 22.1478 83.5295 21.4521 83.5295 20.5224V14.0274H82.1035V12.0931H83.6753L84.5912 9.50736H86.4234V12.0931H88.557V14.0274H86.4234V19.7487C86.4234 20.2848 86.5276 20.6818 86.7351 20.9398C86.9435 21.1909 87.2663 21.3165 87.7037 21.3165C87.9327 21.3165 88.2582 21.2689 88.6818 21.1739V22.9453C87.9603 23.176 87.138 23.2914 86.2151 23.2914ZM101.13 17.5905C101.13 19.3754 100.624 20.7768 99.6105 21.7949C98.598 22.8061 97.1963 23.3117 95.4054 23.3117C93.6498 23.3117 92.2731 22.8027 91.2734 21.7848C90.2747 20.7667 89.7744 19.3686 89.7744 17.5905C89.7744 15.8191 90.2747 14.4279 91.2734 13.4166C92.2731 12.3986 93.6713 11.8896 95.4682 11.8896C97.3073 11.8896 98.709 12.3816 99.6734 13.3657C100.645 14.343 101.13 15.7512 101.13 17.5905ZM98.0702 17.5905C98.0702 16.2806 97.8515 15.3304 97.415 14.74C96.9776 14.1495 96.3422 13.8543 95.5096 13.8543C93.7333 13.8543 92.8456 15.0997 92.8456 17.5905C92.8456 18.8189 93.06 19.7554 93.4905 20.4002C93.9279 21.0381 94.5556 21.3571 95.3744 21.3571C97.1721 21.3571 98.0702 20.1015 98.0702 17.5905ZM115.359 18.975C115.359 20.3799 114.824 21.4556 113.756 22.2021C112.694 22.9419 111.133 23.3117 109.072 23.3117C107.192 23.3117 105.718 22.986 104.648 22.3345C103.58 21.6829 102.893 20.6954 102.588 19.372L105.554 18.8935C105.755 19.6536 106.147 20.2068 106.73 20.5529C107.313 20.8923 108.122 21.0619 109.156 21.0619C111.299 21.0619 112.371 20.424 112.371 19.148C112.371 18.7408 112.247 18.4049 111.997 18.1402C111.754 17.8755 111.407 17.655 110.956 17.4785C110.513 17.3021 109.655 17.0882 108.385 16.8371C107.289 16.586 106.526 16.3858 106.096 16.2365C105.665 16.0804 105.277 15.9005 104.93 15.6969C104.583 15.4866 104.287 15.2354 104.045 14.9437C103.802 14.6518 103.612 14.309 103.472 13.9154C103.34 13.5218 103.275 13.0705 103.275 12.5614C103.275 11.2652 103.771 10.2743 104.763 9.58888C105.762 8.89658 107.212 8.55048 109.114 8.55048C110.932 8.55048 112.296 8.82871 113.205 9.38525C114.12 9.94172 114.71 10.8614 114.974 12.1441L111.997 12.5411C111.844 11.9235 111.532 11.4586 111.06 11.1464C110.595 10.8342 109.926 10.6781 109.051 10.6781C107.192 10.6781 106.262 11.2482 106.262 12.3884C106.262 12.7617 106.359 13.0671 106.554 13.3046C106.754 13.5421 107.05 13.7458 107.438 13.9154C107.827 14.0783 108.614 14.2853 109.8 14.5364C111.21 14.8283 112.216 15.0997 112.819 15.3508C113.43 15.5952 113.913 15.8836 114.266 16.2162C114.62 16.5419 114.891 16.9356 115.078 17.397C115.265 17.8518 115.359 18.3778 115.359 18.975ZM117.68 23.1081V8.00073H120.605V23.1081H117.68ZM126.215 23.3117C125.125 23.3117 124.276 23.0233 123.665 22.4464C123.055 21.8627 122.749 21.045 122.749 19.993C122.749 18.8528 123.127 17.9841 123.884 17.3869C124.647 16.7896 125.751 16.4842 127.194 16.4706L129.619 16.43V15.8701C129.619 15.1506 129.491 14.6178 129.234 14.2717C128.977 13.9188 128.557 13.7424 127.974 13.7424C127.433 13.7424 127.034 13.8645 126.778 14.1089C126.527 14.3463 126.371 14.7434 126.309 15.2999L123.26 15.1574C123.446 14.0851 123.946 13.2741 124.758 12.7244C125.577 12.1678 126.691 11.8896 128.099 11.8896C129.522 11.8896 130.618 12.2323 131.388 12.9178C132.159 13.6032 132.544 14.5772 132.544 15.8395V19.8504C132.544 20.468 132.614 20.8957 132.752 21.1332C132.898 21.364 133.137 21.4793 133.47 21.4793C133.692 21.4793 133.908 21.4589 134.115 21.4182V22.9656C133.942 23.0063 133.786 23.0437 133.647 23.0776C133.508 23.1115 133.37 23.1387 133.231 23.1591C133.092 23.1794 132.942 23.1964 132.783 23.2099C132.631 23.2235 132.45 23.2303 132.242 23.2303C131.506 23.2303 130.961 23.0538 130.607 22.701C130.26 22.348 130.053 21.8288 129.983 21.1433H129.92C129.102 22.589 127.867 23.3117 126.215 23.3117ZM129.619 18.0078L128.12 18.0282C127.44 18.0554 126.958 18.13 126.674 18.2522C126.389 18.3676 126.17 18.5474 126.017 18.7917C125.872 19.036 125.799 19.3618 125.799 19.769C125.799 20.2916 125.92 20.6818 126.163 20.9398C126.413 21.1909 126.742 21.3165 127.152 21.3165C127.61 21.3165 128.026 21.1943 128.401 20.95C128.783 20.7056 129.081 20.3697 129.296 19.9421C129.511 19.5078 129.619 19.0496 129.619 18.5677V18.0078ZM138.362 23.2914C137.501 23.2914 136.839 23.064 136.374 22.6093C135.909 22.1478 135.677 21.4521 135.677 20.5224V14.0274H134.251V12.0931H135.823L136.739 9.50736H138.57V12.0931H140.704V14.0274H138.57V19.7487C138.57 20.2848 138.674 20.6818 138.883 20.9398C139.091 21.1909 139.414 21.3165 139.85 21.3165C140.079 21.3165 140.406 21.2689 140.829 21.1739V22.9453C140.108 23.176 139.285 23.2914 138.362 23.2914ZM147.189 23.3117C145.496 23.3117 144.194 22.8231 143.286 21.8458C142.376 20.8617 141.922 19.4297 141.922 17.5497C141.922 15.7309 142.383 14.3328 143.306 13.3555C144.229 12.3782 145.537 11.8896 147.23 11.8896C148.847 11.8896 150.082 12.4156 150.936 13.4675C151.789 14.5127 152.216 16.0465 152.216 18.069V18.1504H144.992C144.992 19.2227 145.194 20.0337 145.596 20.5835C146.006 21.1264 146.585 21.3979 147.334 21.3979C148.368 21.3979 149.021 20.9601 149.291 20.0846L152.05 20.3187C151.252 22.3141 149.631 23.3117 147.189 23.3117ZM147.189 13.6914C146.502 13.6914 145.971 13.9256 145.596 14.3939C145.228 14.8621 145.034 15.5171 145.013 16.3586H149.385C149.329 15.4696 149.111 14.8045 148.729 14.3634C148.348 13.9154 147.834 13.6914 147.189 13.6914Z" fill="#1F242C"/>
<path opacity="0.8" d="M8.17952 0H0V8H8.17952V0Z" fill="#1F242C"/>
<path opacity="0.4" d="M8.17952 8H0V16H8.17952V8Z" fill="#1F242C"/>
<path opacity="0.6" d="M8.17952 16H0V24H8.17952V16Z" fill="#1F242C"/>
<path opacity="0.4" d="M8.17952 24H0V32H8.17952V24Z" fill="#1F242C"/>
<path opacity="0.6" d="M16.3592 24H8.17969V32H16.3592V24Z" fill="#1F242C"/>
<path opacity="0.8" d="M24.5389 24H16.3594V32H24.5389V24Z" fill="#1F242C"/>
<path opacity="0.6" d="M16.3592 0H8.17969V8H16.3592V0Z" fill="#1F242C"/>
<path opacity="0.4" d="M24.5389 0H16.3594V8H24.5389V0Z" fill="#1F242C"/>
</g>
</g>
<defs>
<clipPath id="clip0_1743_648">
<rect width="153" height="32" fill="white"/>
</clipPath>
</defs>
</svg>
