<svg width="156" height="25" viewBox="0 0 156 25" fill="none" xmlns="http://www.w3.org/2000/svg">
<path fill-rule="evenodd" clip-rule="evenodd" d="M12.6504 12.027H16.2951C15.928 14.0372 15.0802 15.6367 13.7516 16.8254C12.4406 18.0141 10.7887 18.6084 8.7959 18.6084C6.41854 18.6084 4.4782 17.8218 2.97487 16.2485C1.48902 14.6578 0.746094 12.4116 0.746094 9.50978C0.746094 6.57304 1.47154 4.25686 2.92243 2.56125C4.37331 0.86563 6.34862 0.0178223 8.84834 0.0178223C10.9635 0.0178223 12.6853 0.612162 14.0139 1.80084C15.3599 2.98952 16.1203 4.49285 16.2951 6.31083H12.6504C12.4056 5.3494 11.9337 4.58899 11.2344 4.02961C10.5352 3.45276 9.74859 3.16433 8.87456 3.16433C7.40619 3.16433 6.29618 3.70622 5.54451 4.79002C4.81033 5.85634 4.44324 7.35967 4.44324 9.30001C4.44324 11.2578 4.80159 12.7699 5.51829 13.8362C6.23499 14.9025 7.29257 15.4357 8.69102 15.4357C10.8062 15.4357 12.1259 14.2995 12.6504 12.027ZM20.524 18.0053H17.1153V5.10467H20.3142V6.6517C20.8212 5.86508 21.3718 5.35814 21.9662 5.13089C22.578 4.88616 23.3034 4.7638 24.1425 4.7638H24.5882V8.25117C24.2736 8.19873 23.9589 8.17251 23.6443 8.17251C21.5641 8.17251 20.524 9.21261 20.524 11.2928V18.0053ZM33.7469 16.301V18.3986C33.7469 19.2202 33.5109 19.8845 33.0389 20.3914C32.5844 20.9159 32.0338 21.1781 31.387 21.1781C30.513 21.1781 29.8487 20.9596 29.3942 20.5225C28.9397 20.0855 28.7125 19.4824 28.7125 18.7133H25.5398C25.5398 20.4089 26.0205 21.7287 26.9819 22.6727C27.9608 23.6341 29.3768 24.1148 31.2297 24.1148C32.9428 24.1148 34.3587 23.5904 35.4775 22.5415C36.5962 21.5102 37.1556 20.1117 37.1556 18.3462V5.10467H33.7469V12.9709C33.7469 13.6702 33.5022 14.247 33.0127 14.7015C32.5233 15.156 31.894 15.3833 31.1248 15.3833C29.6739 15.3833 28.9485 14.5791 28.9485 12.9709V5.10467H25.5398V13.4691C25.5398 14.8676 25.9855 15.9951 26.877 16.8516C27.7685 17.7082 28.896 18.1364 30.2595 18.1364C31.0811 18.1364 31.8066 17.9704 32.4359 17.6382C33.0826 17.3061 33.5196 16.8604 33.7469 16.301ZM44.7847 15.4357C46.7425 15.4357 47.7214 14.1072 47.7214 11.4501C47.7214 10.2964 47.4504 9.36119 46.9085 8.64449C46.3666 7.9103 45.6674 7.54321 44.8109 7.54321C43.9893 7.54321 43.2988 7.89282 42.7394 8.59205C42.1975 9.27379 41.9266 10.1566 41.9266 11.2404C41.9266 14.0372 42.8793 15.4357 44.7847 15.4357ZM42.0577 24.1148H38.7014V5.10467H41.979L42.0052 6.67792C42.7919 5.40184 43.9893 4.7638 45.5975 4.7638C47.2582 4.7638 48.6042 5.38436 49.6355 6.62548C50.6669 7.8666 51.1825 9.55348 51.1825 11.6861C51.1825 13.6789 50.7106 15.2871 49.7666 16.5107C48.8227 17.7344 47.5291 18.3462 45.8859 18.3462C44.2952 18.3462 43.0191 17.6732 42.0577 16.3272V24.1148ZM59.742 9.50978V12.866C59.742 14.5442 59.0778 15.3833 57.7492 15.3833C56.4382 15.3833 55.7827 14.5267 55.7827 12.8136V7.51699H62.9147V5.10467H55.7827V1.6173H52.4264V13.1545C52.4264 14.6578 52.8547 15.8989 53.7112 16.8778C54.5852 17.8568 55.9138 18.3462 57.6968 18.3462C59.4099 18.3462 60.7034 17.8568 61.5775 16.8778C62.469 15.8814 62.9147 14.6491 62.9147 13.1807V9.50978H59.742ZM67.5329 11.555C67.5329 14.1771 68.573 15.4881 70.6532 15.4881C72.7334 15.4881 73.7735 14.1771 73.7735 11.555C73.7735 8.9504 72.7334 7.6481 70.6532 7.6481C68.573 7.6481 67.5329 8.9504 67.5329 11.555ZM70.6532 18.3462C68.5905 18.3462 66.9648 17.7256 65.7761 16.4845C64.6049 15.2434 64.0193 13.6002 64.0193 11.555C64.0193 9.4923 64.6136 7.84912 65.8023 6.62548C67.0085 5.38436 68.6254 4.7638 70.6532 4.7638C72.6634 4.7638 74.2542 5.38436 75.4254 6.62548C76.6141 7.84912 77.2084 9.4923 77.2084 11.555C77.2084 13.6002 76.6141 15.2434 75.4254 16.4845C74.2367 17.7256 72.646 18.3462 70.6532 18.3462ZM85.4696 8.72315H82.0084V3.61008H85.4696C86.466 3.61008 87.2089 3.83733 87.6984 4.29182C88.1878 4.74632 88.4326 5.35814 88.4326 6.12729C88.4326 6.93139 88.1878 7.56943 87.6984 8.04141C87.2264 8.4959 86.4835 8.72315 85.4696 8.72315ZM78.3637 18.0053H82.0084V11.6861H86.0465C87.7246 11.6861 89.0706 11.1792 90.0845 10.1653C91.1158 9.15143 91.6315 7.84038 91.6315 6.23217C91.6315 4.62396 91.1158 3.28669 90.0845 2.22037C89.0706 1.13658 87.7246 0.594682 86.0465 0.594682H78.3637V18.0053ZM95.6742 11.555C95.6742 14.1771 96.7143 15.4881 98.7945 15.4881C100.875 15.4881 101.915 14.1771 101.915 11.555C101.915 8.9504 100.875 7.6481 98.7945 7.6481C96.7143 7.6481 95.6742 8.9504 95.6742 11.555ZM98.7945 18.3462C96.7318 18.3462 95.1061 17.7256 93.9174 16.4845C92.7462 15.2434 92.1606 13.6002 92.1606 11.555C92.1606 9.4923 92.755 7.84912 93.9437 6.62548C95.1498 5.38436 96.7668 4.7638 98.7945 4.7638C100.805 4.7638 102.396 5.38436 103.567 6.62548C104.755 7.84912 105.35 9.4923 105.35 11.555C105.35 13.6002 104.755 15.2434 103.567 16.4845C102.378 17.7256 100.787 18.3462 98.7945 18.3462ZM113.899 9.50978V12.866C113.899 14.5442 113.235 15.3833 111.907 15.3833C110.596 15.3833 109.94 14.5267 109.94 12.8136V7.51699H117.072V5.10467H109.94V1.6173H106.584V13.1545C106.584 14.6578 107.012 15.8989 107.869 16.8778C108.743 17.8568 110.071 18.3462 111.854 18.3462C113.567 18.3462 114.861 17.8568 115.735 16.8778C116.626 15.8814 117.072 14.6491 117.072 13.1807V9.50978H113.899ZM126.279 13.102L126.305 11.6861C126.025 11.9658 125.291 12.2193 124.103 12.4465C123.141 12.6213 122.468 12.866 122.084 13.1807C121.716 13.4779 121.533 13.9061 121.533 14.4655C121.533 15.427 122.084 15.9077 123.185 15.9077C124.059 15.9077 124.784 15.6367 125.361 15.0948C125.956 14.5354 126.261 13.8712 126.279 13.102ZM129.714 18.0053H126.541C126.436 17.6732 126.366 17.2886 126.331 16.8516C125.422 17.848 124.12 18.3462 122.424 18.3462C121.009 18.3462 119.933 18.0316 119.199 17.4023C118.483 16.7555 118.124 15.8902 118.124 14.8064C118.124 14.0897 118.229 13.4691 118.439 12.9447C118.649 12.4203 118.893 12.0095 119.173 11.7123C119.47 11.4152 119.916 11.1617 120.51 10.9519C121.105 10.7422 121.629 10.5936 122.084 10.5062C122.538 10.4188 123.194 10.3139 124.05 10.1915C124.889 10.0692 125.457 9.91183 125.754 9.71954C126.069 9.50978 126.226 9.17765 126.226 8.72315C126.226 8.30362 126.025 7.98023 125.623 7.75298C125.239 7.50825 124.714 7.38589 124.05 7.38589C122.669 7.38589 121.891 8.02393 121.716 9.30001H118.544C118.596 6.27587 120.484 4.7638 124.207 4.7638C126.183 4.7638 127.59 5.19207 128.429 6.04862C129.286 6.88769 129.714 8.15503 129.714 9.85065V18.0053ZM138.533 9.50978V12.866C138.533 14.5442 137.868 15.3833 136.54 15.3833C135.229 15.3833 134.573 14.5267 134.573 12.8136V7.51699H141.705V5.10467H134.573V1.6173H131.217V13.1545C131.217 14.6578 131.645 15.8989 132.502 16.8778C133.376 17.8568 134.704 18.3462 136.487 18.3462C138.201 18.3462 139.494 17.8568 140.368 16.8778C141.26 15.8814 141.705 14.6491 141.705 13.1807V9.50978H138.533ZM146.324 11.555C146.324 14.1771 147.364 15.4881 149.444 15.4881C151.524 15.4881 152.564 14.1771 152.564 11.555C152.564 8.9504 151.524 7.6481 149.444 7.6481C147.364 7.6481 146.324 8.9504 146.324 11.555ZM149.444 18.3462C147.381 18.3462 145.755 17.7256 144.567 16.4845C143.396 15.2434 142.81 13.6002 142.81 11.555C142.81 9.4923 143.404 7.84912 144.593 6.62548C145.799 5.38436 147.416 4.7638 149.444 4.7638C151.454 4.7638 153.045 5.38436 154.216 6.62548C155.405 7.84912 155.999 9.4923 155.999 11.555C155.999 13.6002 155.405 15.2434 154.216 16.4845C153.027 17.7256 151.437 18.3462 149.444 18.3462ZM68.7762 11.241C68.7762 10.2066 69.6147 9.36809 70.6491 9.36809C71.6835 9.36809 72.522 10.2066 72.522 11.241V11.8653C72.522 12.8997 71.6835 13.7382 70.6491 13.7382C69.6147 13.7382 68.7762 12.8997 68.7762 11.8653V11.241ZM149.406 9.36809C148.372 9.36809 147.533 10.2066 147.533 11.241V11.8653C147.533 12.8997 148.372 13.7382 149.406 13.7382C150.44 13.7382 151.279 12.8997 151.279 11.8653V11.241C151.279 10.2066 150.44 9.36809 149.406 9.36809Z" fill="#1F242C"/>
</svg>
