<svg width="127" height="42" viewBox="0 0 127 42" fill="none" xmlns="http://www.w3.org/2000/svg">
<g clip-path="url(#clip0_1734_2273)">
<path fill-rule="evenodd" clip-rule="evenodd" d="M17.6047 0.149215C13.7711 0.618251 9.55204 2.57967 5.95407 5.60708C5.2259 6.20404 3.70533 7.6751 3.70533 7.76038C3.70533 7.80302 4.43349 8.57053 5.33299 9.46597L6.96064 11.1076L6.27531 11.8751C3.74816 14.7106 2.03484 17.5888 1.00685 20.6375C0.364351 22.5563 0.0859375 24.134 0.0859375 25.9035C0.0859375 27.5025 0.300102 28.803 0.792682 30.0609L0.985431 30.5726L5.76132 35.3269C9.74479 39.2924 10.6443 40.1451 11.1369 40.4649C12.1649 41.1472 13.3642 41.6162 14.692 41.8934C15.5701 42.0853 17.6047 42.1492 18.5684 42.0213C22.3805 41.5523 26.3212 39.7614 29.7692 36.9045C30.6687 36.1584 32.1893 34.7299 32.1893 34.6446C32.1893 34.602 31.4397 33.8345 30.5402 32.9177L28.8912 31.2548L29.4052 30.7218C30.6687 29.4 32.2107 27.2893 33.1102 25.6264C34.3952 23.3025 35.2305 20.7868 35.5089 18.4842C35.616 17.4822 35.5517 15.3502 35.3804 14.5401C35.0805 13.1756 34.6094 12.067 33.9026 11.001C33.5385 10.4467 32.8104 9.70049 28.7841 5.67104L24.0724 0.980689L23.5799 0.788809C22.916 0.511652 21.5453 0.191856 20.7101 0.106576C19.8748 0.0212972 18.5684 0.0426164 17.6047 0.149215ZM21.6524 1.40709C21.995 1.49236 22.5519 1.62028 22.8517 1.72688C23.4085 1.91876 23.43 1.91876 24.308 2.79287C25.079 3.56038 25.1861 3.66698 24.9934 3.64566C23.9654 3.45379 22.3163 3.41115 21.0313 3.5817C16.9193 4.09338 12.6789 6.1614 8.78105 9.57256C8.39555 9.91368 8.05289 10.2122 7.98864 10.2548C7.92439 10.2974 7.58172 10.0203 6.57514 9.01825L5.24732 7.69642L6.10398 6.95023C9.68054 3.83754 13.6212 1.87612 17.4762 1.3218C18.5042 1.17257 20.7957 1.23653 21.6524 1.40709ZM27.2635 8.18678C29.1482 8.46393 30.7972 9.27409 32.018 10.4893C33.2173 11.6832 33.9883 13.2183 34.3524 15.137C34.5023 15.9898 34.5023 17.9086 34.3524 18.9106C33.8598 22.002 32.4249 25.1787 30.1976 28.0782C29.6836 28.7604 28.4628 30.1888 28.2701 30.338C28.163 30.4233 28.0345 30.3167 26.9208 29.2081C26.2355 28.5259 25.6787 27.9502 25.6787 27.9289C25.6787 27.9076 25.8714 27.6731 26.107 27.4172C29.9834 23.1533 31.8038 17.8233 30.5188 14.5188C30.0048 13.2396 28.934 12.2802 27.5419 11.8538C26.8352 11.6406 25.593 11.534 24.6721 11.6406C23.2586 11.7685 21.5239 12.3228 19.8534 13.133C18.1829 13.9431 16.6623 14.9665 15.1846 16.2883L14.5207 16.8639L13.2571 15.6061L11.9935 14.3482L12.5289 13.8578C15.8057 10.8091 20.1532 8.63449 23.8797 8.14414C24.6293 8.08018 26.5568 8.08018 27.2635 8.18678ZM9.55204 15.5421C9.08088 16.0751 8.48121 16.8213 8.18138 17.2051C4.62624 21.9167 2.99858 27.0335 3.6625 31.4467L3.70533 31.7238L2.82725 30.871C1.99201 30.0609 1.94918 29.9969 1.77784 29.4853C0.107354 24.7096 2.20617 18.1218 7.15339 12.6L7.73164 11.9604L9.05946 13.2822L10.3873 14.604L9.55204 15.5421ZM26.2783 12.8132L26.4497 12.8558L26.4068 13.7512C26.364 14.8172 26.2141 15.6913 25.9999 16.4375C25.3146 18.6761 24.051 20.9147 22.2092 23.0254L21.5025 23.8355L20.1532 22.4924L18.804 21.1492L19.4251 20.467C20.7529 19.0172 21.9736 17.333 22.7232 15.9045C23.1301 15.137 23.6655 13.8365 23.8154 13.2396C23.9011 12.8771 23.9011 12.8771 24.2224 12.8345C24.3937 12.8132 24.5864 12.7919 24.6507 12.7705C24.822 12.7705 26.1284 12.7705 26.2783 12.8132ZM22.4448 13.7512C22.145 14.5827 21.481 15.8619 20.8386 16.8213C20.1318 17.8873 19.6392 18.5269 18.6541 19.6355L17.9687 20.4243L16.6195 19.0812L15.2703 17.738L15.72 17.333C17.1121 16.0964 18.7397 14.9878 20.2389 14.2203C21.0527 13.8152 22.3805 13.2822 22.5733 13.2609C22.5947 13.2609 22.5519 13.4741 22.4448 13.7512ZM42.9618 14.5614C42.8976 14.6254 42.8762 16.3949 42.8762 22.8761C42.8762 30.7644 42.8762 31.1056 43.0047 31.2122C43.1117 31.3188 43.4544 31.3188 46.3456 31.3188C48.1018 31.3188 50.0079 31.2761 50.5647 31.2548C52.8134 31.1056 54.5482 30.3807 55.876 29.0589C56.9254 28.0142 57.5893 26.5644 57.932 24.6457C58.0819 23.7076 58.0819 21.7462 57.932 20.8294C57.3751 17.738 55.5976 15.734 52.7492 14.9238C51.3571 14.5401 51.25 14.5188 47.0095 14.4974C43.8613 14.4974 43.0261 14.4974 42.9618 14.5614ZM120.939 14.8386C120.875 14.9025 120.854 15.4355 120.854 16.8V18.6761H120.04C119.504 18.6761 119.205 18.6974 119.14 18.7614C119.033 18.868 119.033 21.0853 119.14 21.2132C119.205 21.2771 119.504 21.2985 120.04 21.2985H120.854L120.875 25.0934C120.897 28.803 120.897 28.9096 121.046 29.336C121.453 30.5086 122.289 31.1482 123.638 31.3188C124.559 31.4254 125.865 31.3827 126.765 31.2122L126.957 31.1695L126.936 29.6132L126.915 28.0568L126.058 28.0142C125.137 27.9715 124.987 27.9289 124.88 27.737C124.837 27.6518 124.816 26.3726 124.816 24.4751V21.3411L125.908 21.3198L127 21.2985V19.9979V18.6974L125.908 18.6761L124.816 18.6548V16.8213C124.816 15.6913 124.794 14.9452 124.752 14.8599C124.687 14.732 124.58 14.732 122.867 14.732C121.518 14.7746 121.004 14.7959 120.939 14.8386ZM50.8431 18.4416C52.1495 18.7827 53.0062 19.6995 53.3488 21.0426C53.6058 22.066 53.6058 23.7715 53.3274 24.8375C53.049 25.8822 52.4065 26.7137 51.5499 27.1188C50.8003 27.4812 50.3505 27.5452 48.8085 27.5878L47.4165 27.6304V22.9401V18.2497L48.9156 18.2924C50.0079 18.3137 50.5433 18.3563 50.8431 18.4416ZM63.9286 18.5269C61.7869 18.9106 60.1379 20.3177 59.4097 22.3644C58.446 25.0507 58.9171 28.1208 60.5448 29.8477C61.4015 30.7431 62.2153 31.2122 63.4574 31.532C65.8347 32.1289 68.3832 31.5106 70.0751 29.933C70.4821 29.5705 71.5315 28.2487 71.5315 28.1208C71.5315 27.9715 71.2316 27.7797 70.0109 27.1614C69.2613 26.7776 68.6402 26.4578 68.6188 26.4578C68.5974 26.4578 68.4689 26.6497 68.3404 26.8842C68.0406 27.4599 67.4195 28.0995 66.9697 28.334C65.6205 28.9949 64.0357 28.6111 63.3504 27.4599C63.1576 27.1188 62.9649 26.5218 62.9649 26.202V25.9675H67.2482C70.4821 25.9675 71.5315 25.9462 71.5957 25.8822C71.7028 25.7756 71.7028 24.9228 71.5743 24.07C71.2316 21.7888 70.2679 20.1472 68.7259 19.2304C68.2119 18.932 67.2267 18.5908 66.5843 18.4842C65.9418 18.3776 64.5711 18.399 63.9286 18.5269ZM77.9993 18.4416C77.3996 18.5269 76.907 18.6335 76.5215 18.7614C74.3584 19.4436 72.9235 21.2132 72.4738 23.7289C72.3025 24.6883 72.3667 26.2233 72.6023 27.1401C72.9235 28.3766 73.3947 29.1868 74.2514 29.9969C75.0009 30.7005 75.879 31.1908 77.0569 31.5106C77.3996 31.6172 77.7423 31.6386 78.6203 31.6386C79.6269 31.6386 79.7768 31.6172 80.3337 31.4467C81.4473 31.1056 82.304 30.5939 83.075 29.7837C83.589 29.2507 84.1672 28.4619 84.1672 28.2913C84.1672 28.2274 84.0601 28.1208 83.9531 28.0355C83.5033 27.7584 81.4259 26.735 81.3188 26.735C81.2546 26.735 81.1475 26.8842 81.0404 27.0974C80.7834 27.6518 80.4407 28.0142 79.9053 28.27C79.4984 28.4619 79.3699 28.5045 78.9202 28.4832C78.3205 28.4832 77.935 28.334 77.4424 27.9076C76.1574 26.7776 76.0718 23.6436 77.2925 22.2152C78.0635 21.3198 79.4984 21.3198 80.4193 22.1939C80.5692 22.3431 80.7834 22.6203 80.8905 22.8122C80.9976 23.004 81.1261 23.1746 81.1903 23.1746C81.3402 23.2172 83.9745 21.7035 84.0173 21.5543C84.0387 21.4264 83.7603 21 83.3534 20.4883C82.6895 19.6781 81.3831 18.8893 80.248 18.6335C79.6698 18.4842 78.4276 18.399 77.9993 18.4416ZM112.351 18.5908C111.645 18.7188 111.002 18.9746 110.488 19.3583L110.081 19.6568L110.06 19.2304L110.038 18.804L108.389 18.7827C106.933 18.7614 106.719 18.7827 106.612 18.8893C106.483 18.9959 106.483 19.3157 106.483 27.204C106.483 33.4934 106.505 35.4122 106.569 35.4761C106.697 35.604 110.295 35.604 110.402 35.4761C110.467 35.4122 110.488 34.7726 110.488 33.0457V30.7005L111.152 31.0416C112.052 31.4893 112.608 31.5959 113.658 31.5533C114.879 31.4893 115.607 31.2548 116.399 30.6578C117.513 29.8264 118.241 28.5472 118.648 26.7776C118.862 25.8396 118.862 24.1979 118.648 23.1959C118.369 21.8741 117.92 20.9787 117.106 20.1259C115.907 18.804 114.15 18.271 112.351 18.5908ZM15.7628 19.8487C16.9193 21 16.9836 21.0853 16.8979 21.2132C16.8337 21.2771 16.5552 21.5969 16.2554 21.938C15.0561 23.3025 13.9424 24.9655 13.1929 26.5005C12.6574 27.5878 12.3362 28.4832 12.0149 29.6985C11.608 31.2974 11.608 33.067 12.0578 34.3035C12.893 36.6487 15.0989 37.7573 18.1829 37.3949C21.1598 37.0325 24.5864 35.3269 27.5205 32.7472L28.1416 32.1929L29.4052 33.4507L30.6687 34.7086L30.1333 35.199C27.392 37.736 23.7298 39.804 20.5601 40.5715C19.2751 40.8913 18.3757 40.9979 17.1549 40.9979C15.5273 40.9979 14.3279 40.7847 13.0644 40.2304C11.4367 39.5269 9.93754 38.1411 9.16654 36.6061C8.2028 34.7086 7.92439 32.3634 8.35272 29.8264C8.95238 26.2873 10.9441 22.4924 13.8782 19.2304C14.178 18.8893 14.4564 18.6122 14.4778 18.6122C14.4993 18.6122 15.0775 19.1665 15.7628 19.8487ZM91.9628 18.6974C91.1276 18.8254 90.0782 19.2091 89.3929 19.6568L89.1787 19.8061V19.3583C89.1787 19.1025 89.1358 18.8893 89.093 18.8254C89.0288 18.7614 88.5362 18.7401 87.2726 18.7401C85.6878 18.7401 85.5165 18.7401 85.4308 18.868C85.3237 18.9746 85.3237 19.5076 85.3237 25.0507C85.3237 30.8284 85.3237 31.1056 85.4522 31.2122C85.5593 31.3188 85.7949 31.3188 87.3369 31.3188C88.7075 31.3188 89.1144 31.2974 89.1787 31.2335C89.2215 31.1695 89.2644 29.9117 89.2644 27.332C89.2858 23.7502 89.2858 23.4944 89.4143 23.2599C89.6713 22.7482 90.121 22.535 91.4274 22.3218C91.92 22.2365 92.4126 22.1512 92.5197 22.1299L92.7124 22.0873V20.4243C92.7124 18.7614 92.691 18.5695 92.4768 18.6122C92.3912 18.6335 92.177 18.6548 91.9628 18.6974ZM93.719 18.8467C93.6761 18.9106 93.6547 19.0172 93.6762 19.1238C93.6976 19.2091 94.2758 21.0853 94.9612 23.2599C97.7025 32.0436 97.5525 31.532 97.3598 31.8731C97.1885 32.2142 96.8886 32.2781 95.8178 32.2781C95.1539 32.2781 94.8112 32.2995 94.7684 32.3634C94.7041 32.4274 94.6827 32.8538 94.6827 33.8985C94.6827 34.9431 94.7041 35.3695 94.7684 35.4335C94.8755 35.5401 97.5954 35.5401 98.3021 35.4548C99.48 35.2842 100.444 34.4528 101.001 33.1309C101.129 32.8538 102.221 29.5492 103.442 25.7969C105.305 20.1259 105.669 18.9533 105.584 18.868C105.519 18.7827 105.198 18.7614 103.506 18.7614H101.515L101.45 19.0599C101.408 19.2304 101.001 21 100.529 23.0254C100.058 25.0507 99.6728 26.735 99.63 26.7563C99.6085 26.7776 99.1588 24.9868 98.6662 22.7908L97.7453 18.7614H95.7536C94.1045 18.7614 93.7832 18.7614 93.719 18.8467ZM66.3701 21.5116C67.0126 21.8101 67.4409 22.3858 67.5694 23.0893L67.6122 23.3452H65.3207H63.0291L63.0719 23.132C63.1576 22.7482 63.5217 22.1299 63.8215 21.8741C64.3355 21.4264 64.7853 21.2771 65.492 21.3198C65.8347 21.3411 66.0917 21.4051 66.3701 21.5116ZM113.636 21.6182C114.236 21.938 114.686 22.599 114.9 23.4944C115.05 24.1553 115.05 25.733 114.879 26.3939C114.729 26.9695 114.429 27.5665 114.108 27.9716C113.594 28.5898 112.587 28.7604 111.773 28.3553C110.831 27.8863 110.381 26.8416 110.381 25.0934C110.381 23.4731 110.809 22.3218 111.602 21.7462C112.223 21.3198 112.972 21.2771 113.636 21.6182ZM19.9605 25.0721C18.2043 26.7137 15.9556 28.1847 14.0923 28.9309C13.7068 29.0802 13.3642 29.2081 13.3428 29.2081C13.3214 29.2081 13.407 28.9736 13.5141 28.6751C14.3279 26.4365 15.7414 24.1553 17.4333 22.3431L17.8402 21.9167L19.1895 23.2386L20.5387 24.5604L19.9605 25.0721ZM22.659 26.735L23.9654 28.0355L23.5584 28.4193C21.4168 30.4233 18.1187 32.2355 15.7842 32.7259C15.206 32.8538 13.921 32.9817 13.2999 32.9817H12.893V32.001C12.893 31.468 12.9144 30.8924 12.9359 30.7644L12.9787 30.5086L13.8139 30.2314C15.9342 29.5492 18.6326 27.8649 20.6244 25.9888C20.9456 25.6903 21.2455 25.4345 21.2883 25.4345C21.3311 25.4345 21.9522 26.0101 22.659 26.735Z" fill="#1F242C"/>
</g>
<defs>
<clipPath id="clip0_1734_2273">
<rect width="127" height="42" fill="white"/>
</clipPath>
</defs>
</svg>
