<svg width="167" height="40" viewBox="0 0 167 40" fill="none" xmlns="http://www.w3.org/2000/svg">
<g clip-path="url(#clip0_1557_2242)">
<path d="M47.3482 23.0168C47.3458 23.1558 47.2858 23.2883 47.1815 23.3853C47.0772 23.4822 46.937 23.5357 46.7915 23.5342H36.5396C36.8025 25.9584 38.7044 28.1757 41.395 28.1757C43.2351 28.1757 44.5958 27.5105 45.6164 26.1062C45.6639 26.0324 45.7296 25.971 45.8078 25.9271C45.886 25.8833 45.9742 25.8585 46.0648 25.8549C46.1323 25.8531 46.1995 25.8645 46.2623 25.8883C46.3251 25.9122 46.3821 25.948 46.4299 25.9937C46.4777 26.0394 46.5152 26.0939 46.5401 26.1539C46.5651 26.2139 46.577 26.2782 46.5751 26.3427C46.5754 26.4319 46.5486 26.5192 46.4978 26.594C45.4617 28.3087 43.4052 29.1513 41.395 29.1513C37.9467 29.1513 35.4727 26.1949 35.4727 23.0464C35.4727 19.8978 37.9313 16.9414 41.395 16.9414C44.8587 16.9414 47.3328 19.8682 47.3482 23.0168ZM46.2503 22.5586C46.0339 20.1343 44.0855 17.917 41.395 17.917C38.7044 17.917 36.8025 20.1343 36.5396 22.5586H46.2503Z" fill="#1F242C"/>
<path d="M59.8124 17.1777C59.9465 17.1814 60.074 17.234 60.1689 17.3247C60.2638 17.4154 60.3188 17.5373 60.3227 17.6655C60.3246 17.7301 60.3127 17.7943 60.2877 17.8543C60.2628 17.9143 60.2252 17.9689 60.1775 18.0145C60.1297 18.0602 60.0727 18.0961 60.0099 18.1199C59.9471 18.1438 59.8799 18.1551 59.8124 18.1533H57.06V28.4859C57.0588 28.6149 57.0046 28.7383 56.9092 28.8296C56.8137 28.9208 56.6846 28.9725 56.5497 28.9737C56.4156 28.97 56.288 28.9174 56.1932 28.8267C56.0983 28.736 56.0433 28.6141 56.0394 28.4859V18.1533H53.3952C53.3277 18.1551 53.2605 18.1438 53.1977 18.1199C53.1349 18.0961 53.0779 18.0602 53.0301 18.0145C52.9824 17.9689 52.9449 17.9143 52.9199 17.8543C52.8949 17.7943 52.883 17.7301 52.885 17.6655C52.8862 17.5365 52.9403 17.4131 53.0358 17.3219C53.1312 17.2306 53.2603 17.1789 53.3952 17.1777H56.0394V13.4083C56.0397 13.2834 56.0865 13.1627 56.1716 13.0678C56.2566 12.973 56.3742 12.9103 56.5033 12.8909C56.5755 12.8818 56.6488 12.8876 56.7184 12.908C56.788 12.9285 56.8521 12.963 56.9064 13.0094C56.9608 13.0557 57.004 13.1126 57.0331 13.1764C57.0623 13.2401 57.0767 13.3092 57.0754 13.3787V17.1777H59.8124Z" fill="#1F242C"/>
<path d="M76.588 22.1726V28.4254C76.5841 28.5536 76.5291 28.6755 76.4342 28.7662C76.3393 28.8569 76.2118 28.9094 76.0777 28.9132C76.0101 28.915 75.9429 28.9036 75.8802 28.8798C75.8174 28.8559 75.7603 28.82 75.7126 28.7744C75.6648 28.7287 75.6273 28.6742 75.6023 28.6142C75.5774 28.5542 75.5655 28.4899 75.5674 28.4254V22.1726C75.5674 20.0588 74.3149 17.9597 71.8563 17.9597C68.7018 17.9597 67.3411 20.5909 67.5267 23.296C67.5267 23.3699 67.5576 23.6804 67.5576 23.7247V28.4106C67.5573 28.5355 67.5105 28.6562 67.4254 28.751C67.3404 28.8459 67.2228 28.9086 67.0937 28.9279C67.0215 28.9371 66.9482 28.9313 66.8786 28.9108C66.809 28.8904 66.7449 28.8558 66.6906 28.8095C66.6362 28.7632 66.593 28.7062 66.5639 28.6425C66.5347 28.5787 66.5203 28.5097 66.5216 28.4401V7.87843C66.5228 7.74941 66.5769 7.62601 66.6724 7.53478C66.7678 7.44355 66.8969 7.39178 67.0318 7.39062C67.1659 7.39434 67.2935 7.44693 67.3884 7.53762C67.4832 7.62831 67.5382 7.75023 67.5421 7.87843V19.4971C68.4235 17.9893 70.0007 16.9693 71.8408 16.9693C74.8716 16.9693 76.588 19.4971 76.588 22.1726Z" fill="#1F242C"/>
<path d="M95.0025 23.0168C95.0001 23.1558 94.9401 23.2883 94.8358 23.3853C94.7315 23.4822 94.5913 23.5357 94.4458 23.5342H84.1939C84.4568 25.9584 86.3587 28.1757 89.0493 28.1757C90.8894 28.1757 92.2501 27.5105 93.2707 26.1062C93.3182 26.0324 93.3839 25.971 93.4621 25.9271C93.5403 25.8833 93.6285 25.8585 93.7191 25.8549C93.7866 25.8531 93.8538 25.8645 93.9166 25.8883C93.9794 25.9122 94.0364 25.948 94.0842 25.9937C94.132 26.0394 94.1695 26.0939 94.1944 26.1539C94.2194 26.2139 94.2313 26.2782 94.2294 26.3427C94.2297 26.4319 94.2029 26.5192 94.1521 26.594C93.116 28.3087 91.0595 29.1513 89.0493 29.1513C85.601 29.1513 83.127 26.1949 83.127 23.0464C83.127 19.8978 85.5856 16.9414 89.0493 16.9414C92.4821 16.9414 94.9871 19.8682 95.0025 23.0168ZM93.8892 22.5586C93.6727 20.1343 91.7244 17.917 89.0338 17.917C86.3433 17.917 84.4413 20.1343 84.1784 22.5586H93.8892Z" fill="#1F242C"/>
<path d="M107.606 17.634C107.616 17.7653 107.571 17.8949 107.481 17.9946C107.392 18.0943 107.264 18.156 107.127 18.1662C104.112 18.5949 102.751 20.9452 102.751 23.6798V28.3657C102.751 28.4906 102.704 28.6114 102.619 28.7062C102.534 28.801 102.416 28.8637 102.287 28.8831C102.215 28.8923 102.142 28.8864 102.072 28.866C102.002 28.8455 101.938 28.811 101.884 28.7647C101.83 28.7184 101.786 28.6614 101.757 28.5976C101.728 28.5339 101.714 28.4649 101.715 28.3953V17.7079C101.715 17.583 101.762 17.4623 101.847 17.3675C101.932 17.2726 102.05 17.2099 102.179 17.1906C102.251 17.1814 102.324 17.1872 102.394 17.2077C102.463 17.2281 102.528 17.2627 102.582 17.309C102.636 17.3553 102.679 17.4123 102.709 17.476C102.738 17.5398 102.752 17.6088 102.751 17.6784V19.8513C103.601 18.4766 105.287 17.1758 107.05 17.1758C107.313 17.1758 107.606 17.3532 107.606 17.634Z" fill="#1F242C"/>
<path d="M124.463 23.0168C124.461 23.1558 124.401 23.2883 124.297 23.3853C124.192 23.4822 124.052 23.5357 123.907 23.5342H113.655C113.918 25.9584 115.82 28.1757 118.51 28.1757C120.35 28.1757 121.711 27.5105 122.732 26.1062C122.779 26.0324 122.845 25.971 122.923 25.9271C123.001 25.8833 123.089 25.8585 123.18 25.8549C123.248 25.8531 123.315 25.8645 123.378 25.8883C123.44 25.9122 123.497 25.948 123.545 25.9937C123.593 26.0394 123.63 26.0939 123.655 26.1539C123.68 26.2139 123.692 26.2782 123.69 26.3427C123.691 26.4319 123.664 26.5192 123.613 26.594C122.577 28.3087 120.52 29.1513 118.51 29.1513C115.062 29.1513 112.588 26.1949 112.588 23.0464C112.588 19.8978 115.047 16.9414 118.51 16.9414C121.974 16.9414 124.448 19.8682 124.463 23.0168ZM123.366 22.5586C123.149 20.1343 121.201 17.917 118.51 17.917C115.82 17.917 113.918 20.1343 113.655 22.5586H123.366Z" fill="#1F242C"/>
<path d="M141.036 17.7523V28.484C141.032 28.6122 140.977 28.7341 140.882 28.8248C140.787 28.9155 140.659 28.9681 140.525 28.9718C140.458 28.9736 140.391 28.9623 140.328 28.9384C140.265 28.9145 140.208 28.8787 140.16 28.833C140.112 28.7873 140.075 28.7328 140.05 28.6728C140.025 28.6128 140.013 28.5486 140.015 28.484V26.4441C139.165 28.0553 137.665 29.2231 135.747 29.2231C132.701 29.2231 131.016 26.6954 131.016 24.0198V17.7375C131.017 17.6085 131.071 17.4851 131.166 17.3939C131.262 17.3026 131.391 17.2509 131.526 17.2497C131.66 17.2534 131.788 17.306 131.882 17.3967C131.977 17.4874 132.032 17.6093 132.036 17.7375V24.0198C132.036 26.1337 133.289 28.2327 135.747 28.2327C139.196 28.2327 140.015 25.1433 140.015 21.7286V17.7227C140.016 17.6436 140.037 17.566 140.076 17.4962C140.115 17.4265 140.171 17.3666 140.239 17.3218C140.307 17.2769 140.386 17.2483 140.468 17.2383C140.55 17.2284 140.633 17.2373 140.711 17.2645C140.808 17.3077 140.89 17.3766 140.948 17.463C141.005 17.5494 141.036 17.6498 141.036 17.7523Z" fill="#1F242C"/>
<path d="M167.003 22.1277V28.41C167 28.5382 166.945 28.6601 166.85 28.7508C166.755 28.8415 166.627 28.8941 166.493 28.8978C166.426 28.8996 166.358 28.8883 166.296 28.8644C166.233 28.8405 166.176 28.8047 166.128 28.759C166.08 28.7133 166.043 28.6588 166.018 28.5988C165.993 28.5388 165.981 28.4745 165.983 28.41V22.1277C165.983 20.0138 164.73 17.9444 162.272 17.9444C159.179 17.9444 158.004 21.1077 158.004 23.5615V28.41C158 28.5382 157.945 28.6601 157.85 28.7508C157.755 28.8415 157.628 28.8941 157.494 28.8978C157.426 28.8996 157.359 28.8883 157.296 28.8644C157.233 28.8405 157.176 28.8047 157.129 28.759C157.081 28.7133 157.043 28.6588 157.018 28.5988C156.993 28.5388 156.981 28.4745 156.983 28.41V22.1277C156.983 20.0138 155.731 17.9444 153.272 17.9444C150.149 17.9444 148.865 20.2947 148.974 23.4285C148.974 23.5024 149.005 23.6354 148.974 23.6798V28.3952C148.973 28.5201 148.926 28.6408 148.841 28.7357C148.756 28.8305 148.639 28.8932 148.51 28.9126C148.438 28.9217 148.364 28.9159 148.295 28.8955C148.225 28.875 148.161 28.8405 148.107 28.7942C148.052 28.7478 148.009 28.6909 147.98 28.6271C147.951 28.5634 147.936 28.4943 147.938 28.4248V17.7078C147.938 17.5829 147.985 17.4622 148.07 17.3674C148.155 17.2726 148.272 17.2098 148.401 17.1905C148.474 17.1813 148.547 17.1872 148.617 17.2076C148.686 17.228 148.75 17.2626 148.805 17.3089C148.859 17.3552 148.902 17.4122 148.931 17.4759C148.96 17.5397 148.975 17.6087 148.974 17.6783V19.4669C149.855 17.9591 151.432 16.9688 153.272 16.9688C155.36 16.9688 156.983 18.24 157.648 20.0877C158.499 18.2548 160.153 16.9688 162.272 16.9688C165.287 16.9688 167.003 19.4669 167.003 22.1277Z" fill="#1F242C"/>
<path opacity="0.6" d="M12.8343 14.7969L0 20.3697L12.8343 27.6276L25.684 20.3697L12.8343 14.7969Z" fill="#1F242C"/>
<path opacity="0.45" d="M0 20.3695L12.8343 27.6275V0L0 20.3695Z" fill="#1F242C"/>
<path opacity="0.8" d="M12.8359 0V27.6275L25.6857 20.3695L12.8359 0Z" fill="#1F242C"/>
<path opacity="0.45" d="M0 22.707L12.8343 40.0019V29.9502L0 22.707Z" fill="#1F242C"/>
<path opacity="0.8" d="M12.8359 29.9502V40.0019L25.6857 22.707L12.8359 29.9502Z" fill="#1F242C"/>
</g>
<defs>
<clipPath id="clip0_1557_2242">
<rect width="167" height="40" fill="white"/>
</clipPath>
</defs>
</svg>
