<svg width="81" height="24" viewBox="0 0 81 24" fill="none" xmlns="http://www.w3.org/2000/svg">
<g clip-path="url(#clip0_1557_2301)">
<mask id="mask0_1557_2301" style="mask-type:luminance" maskUnits="userSpaceOnUse" x="0" y="0" width="81" height="24">
<path d="M80.6386 0H0V24H80.6386V0Z" fill="white"/>
</mask>
<g mask="url(#mask0_1557_2301)">
<path d="M16.1084 14.1114V9.88672H4.38281V14.1114H16.1084Z" fill="#1F242C"/>
<path d="M17.9231 0H6.80697C3.04689 0 0 2.9347 0 6.5563V24H4.38284V6.5563C4.38284 5.26633 5.46767 4.22144 6.80697 4.22144H17.9231V0Z" fill="#1F242C"/>
<path d="M22.4259 0V14.2671C22.4259 17.3115 19.8645 19.7786 16.7038 19.7786H10.6602V24H16.6803C22.2752 24 26.8088 19.6334 26.8088 14.2445V0H22.4259Z" fill="#1F242C"/>
<path d="M44.9038 0H37.5143C34.1125 0 31.3535 2.65735 31.3535 5.93389V24H35.7364V5.84359C35.7364 4.94706 36.4897 4.22144 37.4205 4.22144H44.9038V0Z" fill="#1F242C"/>
<path d="M35.7363 24H43.1259C46.5276 24 49.2866 21.3427 49.2866 18.0661V0H44.9037V18.1564C44.9037 19.0529 44.1504 19.7786 43.2196 19.7786H35.7363V24Z" fill="#1F242C"/>
<path d="M58.213 24V9.7329C58.213 6.68852 60.7743 4.22144 63.9351 4.22144H69.9786V0H63.9585C58.3636 0 53.8301 4.36657 53.8301 9.75548V24H58.213Z" fill="#1F242C"/>
<path d="M76.2534 8.71094H68.8639C65.462 8.71094 62.7031 11.3683 62.7031 14.6448V24.0004H67.0859V14.5577C67.0859 13.6612 67.8393 12.9356 68.7701 12.9356H76.2534V8.71094Z" fill="#1F242C"/>
<path d="M67.0898 24H74.4794C77.8812 24 80.64 21.3427 80.64 18.0661V0H76.2573V18.1564C76.2573 19.0529 75.504 19.7786 74.5732 19.7786H67.0898V24Z" fill="#1F242C"/>
<path d="M74.476 24C77.8778 24 80.6367 21.3427 80.6367 18.0661V0H76.2539V18.1564C76.2539 20.0753 75.3231 24 71.7539 24H74.476Z" fill="#1F242C"/>
</g>
</g>
<defs>
<clipPath id="clip0_1557_2301">
<rect width="81" height="24" fill="white"/>
</clipPath>
</defs>
</svg>
