<svg width="144" height="36" viewBox="0 0 144 36" fill="none" xmlns="http://www.w3.org/2000/svg">
<g clip-path="url(#clip0_1734_2242)">
<path d="M33.9362 23.3653C33.9362 23.9522 33.9824 24.4254 34.0771 24.7871C34.1717 25.1511 34.308 25.4377 34.4881 25.6493C34.6659 25.8608 34.8852 26.0041 35.1462 26.0883C35.4071 26.1702 35.7073 26.2111 36.0375 26.2111V26.9846H24.0625V26.2111C24.3719 26.2111 24.6582 26.1702 24.9192 26.0883C25.1801 26.0041 25.3995 25.8608 25.5773 25.6493C25.7574 25.4377 25.8936 25.1511 25.9883 24.7871C26.083 24.4254 26.1291 23.9522 26.1291 23.3653V13.3603C26.1291 12.8439 26.1176 12.4094 26.0945 12.0614C26.0691 11.7088 25.9929 11.4153 25.8636 11.1833C25.732 10.9512 25.5288 10.7693 25.2586 10.6396C24.9838 10.5122 24.5982 10.4121 24.0994 10.3416V9.56812H33.9339V23.3653H33.9362Z" fill="#1F242C"/>
<path d="M29.732 0.0979004C30.2769 0.0979004 30.808 0.166147 31.3183 0.309464C31.8286 0.448232 32.2858 0.673445 32.6876 0.976005C33.0917 1.28084 33.4196 1.66529 33.669 2.13392C33.9184 2.60254 34.0431 3.16217 34.0431 3.81733C34.0431 4.4725 33.9184 4.9889 33.669 5.4325C33.4196 5.87837 33.0917 6.24008 32.6876 6.52217C32.2835 6.80198 31.8286 7.01354 31.3183 7.15231C30.808 7.29563 30.3023 7.36387 29.8036 7.36387C29.2794 7.36387 28.7737 7.29563 28.2888 7.15231C27.8016 7.01354 27.3628 6.7906 26.968 6.48804C26.5778 6.18321 26.2637 5.80785 26.0236 5.36425C25.788 4.92065 25.668 4.37923 25.668 3.74908C25.668 3.11894 25.788 2.57297 26.0236 2.11572C26.2637 1.66074 26.5685 1.28539 26.9495 0.994204C27.3305 0.703019 27.7646 0.477806 28.2495 0.327663C28.7368 0.175246 29.2309 0.100175 29.7297 0.100175" fill="#1F242C"/>
<path d="M47.4008 9.56806V11.8156C47.9458 10.9239 48.6246 10.2301 49.4305 9.72503C50.241 9.22228 51.227 8.97204 52.3908 8.97204C54.3858 8.94702 55.8244 9.47479 56.7019 10.5508C57.5793 11.6291 58.0204 13.2079 58.0204 15.2917V23.8225C58.0204 24.034 58.0573 24.2752 58.1266 24.5436C58.1982 24.812 58.3067 25.0691 58.4475 25.3148C58.5884 25.5605 58.787 25.7675 59.0364 25.9313C59.2857 26.0951 59.5882 26.1883 59.9461 26.2111V26.9846H49.6822V26.2111C49.92 26.1883 50.0863 26.0541 50.181 25.8084C50.2756 25.5605 50.3241 25.0054 50.3241 24.1387V14.657C50.3241 13.954 50.1694 13.4422 49.86 13.1123C49.5506 12.7825 49.2204 12.6391 48.8602 12.6733C48.5046 12.7074 48.1721 12.919 47.8626 13.3057C47.5532 13.6901 47.3985 14.2589 47.3985 15.0096V23.9248C47.3985 24.6983 47.4632 25.2397 47.5948 25.5559C47.7241 25.8721 47.9919 26.0905 48.3937 26.2065V26.98H37.668V26.2065C38.4785 26.1838 39.0188 25.9449 39.289 25.4877C39.5637 25.0304 39.7 24.3593 39.7 23.4676V13.3603C39.7 12.7506 39.6584 12.2524 39.5753 11.868C39.4898 11.4835 39.3652 11.1832 39.2012 10.9717C39.035 10.7601 38.8202 10.61 38.5593 10.5144C38.2984 10.4211 38.0005 10.362 37.668 10.3392V9.56579H47.3985L47.4008 9.56806Z" fill="#1F242C"/>
<path d="M70.27 18.206C70.1037 18.206 69.9236 18.2174 69.7343 18.2401C69.5449 18.2651 69.3741 18.3243 69.2193 18.4176C69.0646 18.5108 68.933 18.6337 68.8268 18.7861C68.7229 18.9385 68.6675 19.1546 68.6675 19.4344V23.7203C68.6675 24.0957 68.8176 24.3573 69.1131 24.5097C69.4087 24.6621 69.6535 24.7258 69.8428 24.7008C70.2469 24.6553 70.6325 24.4801 71.002 24.1753C71.3714 23.8704 71.5562 23.3677 71.5562 22.667V18.2083H70.2723L70.27 18.206ZM71.5539 12.7281C71.5539 11.9546 71.4038 11.4177 71.1082 11.1129C70.8126 10.8081 70.2723 10.6352 69.4872 10.5851C69.0831 10.5851 68.6721 10.6102 68.2588 10.6557C67.8408 10.7012 67.5637 10.8081 67.4183 10.9719C67.8939 11.4632 68.1895 12.0069 68.3096 12.603C68.4296 13.199 68.3858 13.7563 68.1849 14.2704C67.984 14.7868 67.6191 15.2213 67.0996 15.5717C66.5754 15.922 65.9104 16.0972 65.1045 16.0972C64.2987 16.0972 63.636 15.8424 63.0541 15.326C62.4722 14.8096 62.2043 14.0839 62.2528 13.1489C62.2759 12.2572 62.5876 11.5383 63.1787 10.9901C63.7722 10.4395 64.4788 10.0187 65.2985 9.72523C66.1182 9.43405 66.9634 9.23386 67.8293 9.12921C68.6952 9.02457 69.4133 8.96997 69.9837 8.96997C70.8634 8.96997 71.824 9.04504 72.87 9.19746C73.9161 9.34988 74.8951 9.63651 75.8118 10.0596C76.7239 10.4782 77.4859 11.0697 78.0909 11.8318C78.6959 12.5916 79.0007 13.5948 79.0007 14.8323V23.0151C79.0007 23.4837 79.0907 23.8113 79.2662 23.9978C79.4464 24.1867 79.6449 24.2731 79.8712 24.2594C80.0975 24.2503 80.3053 24.1434 80.497 23.9455C80.6863 23.7476 80.7926 23.4837 80.8156 23.1561H81.5268C81.5268 23.9046 81.3975 24.5552 81.1366 25.1057C80.8757 25.6562 80.5178 26.1158 80.0675 26.4934C79.6172 26.8687 79.0815 27.144 78.4627 27.3169C77.8438 27.4943 77.1927 27.5785 76.5022 27.5785C75.5047 27.5785 74.6434 27.392 73.9184 27.0189C73.1933 26.6435 72.6299 26.0475 72.2258 25.2263C71.4153 26.0452 70.5263 26.6481 69.5519 27.0348C68.5774 27.4193 67.4113 27.6013 66.0605 27.5762C65.3955 27.5762 64.7536 27.4739 64.1347 27.2623C63.5159 27.0507 62.9709 26.7413 62.4953 26.3319C62.0196 25.9224 61.6409 25.4242 61.3546 24.8395C61.0705 24.2526 60.9297 23.5747 60.9297 22.8035C60.9297 21.4454 61.2784 20.3694 61.9803 19.5732C62.68 18.777 63.5528 18.1628 64.5988 17.7305C65.6449 17.296 66.7902 17.0162 68.0394 16.8866C69.284 16.7592 70.4547 16.6818 71.5492 16.6591V12.7281H71.5539Z" fill="#1F242C"/>
<path d="M91.3911 9.56806V11.8156C91.936 10.9239 92.6149 10.2301 93.4231 9.72503C94.2312 9.22228 95.2172 8.97204 96.381 8.97204C98.3761 8.94702 99.8146 9.47479 100.692 10.5508C101.572 11.6291 102.011 13.2079 102.011 15.2917V23.8225C102.011 24.034 102.048 24.2752 102.117 24.5436C102.188 24.812 102.297 25.0691 102.438 25.3148C102.579 25.5605 102.777 25.7675 103.027 25.9313C103.276 26.0951 103.578 26.1883 103.936 26.2111V26.9846H93.6724V26.2111C93.9103 26.1883 94.0765 26.0541 94.1712 25.8084C94.2659 25.5605 94.3144 25.0054 94.3144 24.1387V14.657C94.3144 13.954 94.1597 13.4422 93.8502 13.1123C93.5408 12.7825 93.2106 12.6391 92.8527 12.6733C92.4948 12.7074 92.1623 12.919 91.8529 13.3057C91.5435 13.6901 91.3887 14.2589 91.3887 15.0096V23.9248C91.3887 24.6983 91.4534 25.2397 91.585 25.5559C91.7143 25.8721 91.9822 26.0905 92.3863 26.2065V26.98H81.6582V26.2065C82.4687 26.1838 83.009 25.9449 83.2792 25.4877C83.554 25.0304 83.6902 24.3593 83.6902 23.4676V13.3603C83.6902 12.7506 83.6486 12.2524 83.5655 11.868C83.4801 11.4835 83.3554 11.1832 83.1914 10.9717C83.0252 10.7601 82.8104 10.61 82.5495 10.5144C82.2886 10.4211 81.9907 10.362 81.6582 10.3392V9.56579H91.3887L91.3911 9.56806Z" fill="#1F242C"/>
<path d="M122.983 21.7161C121.983 23.6361 120.768 25.0852 119.33 26.0703C117.891 27.053 116.044 27.5558 113.788 27.5785C112.432 27.5785 111.162 27.3669 109.973 26.9484C108.784 26.5252 107.747 25.9178 106.856 25.1194C105.965 24.3231 105.256 23.354 104.734 22.2052C104.212 21.0587 103.951 19.7825 103.951 18.3789C103.951 16.9753 104.217 15.6991 104.752 14.5503C105.286 13.4037 106.016 12.4141 106.941 11.5861C107.867 10.7535 108.95 10.112 110.186 9.65471C111.421 9.19746 112.74 8.96997 114.141 8.96997C114.688 8.96997 115.27 8.98817 115.887 9.02229C116.506 9.05869 117.148 9.15651 117.813 9.32258C118.452 9.48637 119.067 9.70703 119.646 9.98912C120.228 10.2689 120.741 10.6033 121.177 10.9901C121.618 11.3745 121.967 11.8272 122.23 12.3391C122.489 12.8555 122.62 13.4287 122.62 14.0589C122.62 14.5753 122.526 15.0257 122.336 15.4102C122.145 15.7946 121.891 16.1245 121.57 16.3952C121.249 16.6636 120.886 16.8615 120.484 16.9912C120.078 17.1186 119.662 17.1823 119.237 17.1823C118.619 17.1823 118.048 17.0322 117.526 16.725C117.002 16.4202 116.624 16.0016 116.386 15.4602C116.243 15.1576 116.159 14.8346 116.136 14.4957C116.113 14.1567 116.148 13.8177 116.243 13.4765C116.337 13.1376 116.487 12.8282 116.688 12.5461C116.889 12.2663 117.148 12.0297 117.455 11.8431C117.404 11.4701 117.164 11.1766 116.723 10.965C116.284 10.7558 115.804 10.6261 115.28 10.5806C114.755 10.5351 114.28 10.5692 113.855 10.6852C113.425 10.8035 113.213 11.0014 113.213 11.2813V23.6407C113.213 23.85 113.289 24.0388 113.444 24.2026C113.599 24.3664 113.788 24.5006 114.014 24.6052C114.241 24.7099 114.49 24.794 114.762 24.8509C115.037 24.9101 115.303 24.9396 115.564 24.9396C116.515 24.9396 117.388 24.7622 118.184 24.4119C118.979 24.0638 119.662 23.6589 120.233 23.2016C120.803 22.7444 121.262 22.3122 121.604 21.9027C121.951 21.4932 122.156 21.2179 122.23 21.0746L122.978 21.707L122.983 21.7161Z" fill="#1F242C"/>
<path d="M136.158 17.1866V11.3925C136.158 11.1127 136.004 10.9079 135.694 10.7783C135.385 10.6509 135.064 10.5849 134.734 10.5849C134.403 10.5849 134.073 10.6509 133.752 10.7783C133.434 10.9079 133.272 11.1127 133.272 11.3925V17.1866H136.158ZM133.272 18.8018V23.4721C133.272 23.7292 133.348 23.9453 133.503 24.1204C133.658 24.2979 133.847 24.4435 134.073 24.5595C134.299 24.6778 134.553 24.7665 134.84 24.8211C135.124 24.8803 135.41 24.9212 135.694 24.9462C137.05 25.0395 138.338 24.7301 139.56 24.0135C140.783 23.3015 141.894 22.346 142.892 21.154L143.711 21.7136C142.712 23.6109 141.465 25.0623 139.971 26.0677C138.474 27.0732 136.726 27.5805 134.731 27.5805C133.304 27.5805 131.97 27.3804 130.72 26.9823C129.471 26.5841 128.39 25.9995 127.478 25.2283C126.562 24.4549 125.837 23.4949 125.303 22.3506C124.768 21.2041 124.502 19.8687 124.502 18.3468C124.502 16.9432 124.768 15.667 125.303 14.5204C125.837 13.3739 126.557 12.3843 127.458 11.554C128.358 10.7237 129.423 10.0844 130.649 9.64083C131.873 9.19723 133.173 8.97656 134.549 8.97656C135.925 8.97656 137.253 9.22225 138.38 9.71362C139.506 10.205 140.469 10.8897 141.266 11.7678C142.06 12.6437 142.668 13.6787 143.081 14.8753C143.497 16.0674 143.707 17.38 143.707 18.8063H133.265L133.272 18.8018Z" fill="#1F242C"/>
<path d="M99.0922 35.4949C99.2145 35.4881 99.3231 35.4653 99.42 35.4289C99.5147 35.3971 99.5955 35.3379 99.6579 35.2538C99.7179 35.1719 99.7641 35.0627 99.7941 34.9239C99.8264 34.7852 99.8403 34.6077 99.8403 34.3916V30.8314C99.8403 30.6426 99.8334 30.4765 99.8195 30.3332C99.808 30.1876 99.7756 30.0716 99.7272 29.9783C99.681 29.8828 99.6048 29.8054 99.5032 29.7508C99.4039 29.6962 99.263 29.6576 99.0898 29.6394V29.355H102.731V30.497C102.819 30.3218 102.918 30.158 103.034 29.9965C103.149 29.8373 103.281 29.6962 103.436 29.5779C103.588 29.4574 103.757 29.3596 103.941 29.2868C104.126 29.214 104.329 29.1753 104.56 29.1753C105.008 29.1753 105.371 29.3072 105.645 29.5711C105.92 29.8373 106.049 30.2263 106.031 30.745C106.024 31.1317 105.899 31.4433 105.662 31.6777C105.426 31.9097 105.098 32.0257 104.678 32.0257C104.484 32.0257 104.313 31.9939 104.165 31.9302C104.015 31.8642 103.89 31.7755 103.789 31.664C103.69 31.5503 103.611 31.4183 103.56 31.2682C103.507 31.1158 103.486 30.9588 103.496 30.795C103.503 30.7336 103.484 30.704 103.429 30.704C103.341 30.704 103.26 30.7359 103.186 30.8018C103.112 30.8655 103.043 30.9474 102.983 31.0407C102.921 31.1362 102.868 31.2454 102.824 31.3637C102.782 31.4866 102.752 31.5958 102.734 31.7004V34.1368C102.734 34.3597 102.741 34.5554 102.759 34.7192C102.777 34.883 102.814 35.024 102.872 35.1332C102.93 35.247 103.008 35.3311 103.11 35.3925C103.209 35.4517 103.343 35.4881 103.512 35.4949V35.7793H99.0945V35.4949H99.0922Z" fill="#1F242C"/>
<path d="M110.471 32.1647V30.0263C110.471 29.9239 110.413 29.8466 110.302 29.8011C110.187 29.7556 110.069 29.7305 109.947 29.7305C109.825 29.7305 109.704 29.7556 109.587 29.8011C109.467 29.8466 109.409 29.9239 109.409 30.0263V32.1647H110.473H110.471ZM109.407 32.7607V34.4828C109.407 34.5783 109.434 34.6579 109.492 34.7239C109.55 34.7876 109.619 34.8422 109.704 34.8854C109.788 34.9264 109.882 34.9582 109.986 34.981C110.09 35.0037 110.196 35.0174 110.302 35.0265C110.801 35.0606 111.277 34.9446 111.73 34.683C112.18 34.4213 112.589 34.0665 112.958 33.6274L113.26 33.8344C112.891 34.5328 112.434 35.0697 111.88 35.4428C111.328 35.8136 110.683 36.0001 109.947 36.0001C109.42 36.0001 108.929 35.9273 108.467 35.7794C108.01 35.6316 107.608 35.4155 107.271 35.1311C106.934 34.8467 106.666 34.4941 106.469 34.0687C106.273 33.6456 106.174 33.1542 106.174 32.5923C106.174 32.0737 106.273 31.6028 106.469 31.1819C106.666 30.7588 106.934 30.3948 107.264 30.0877C107.599 29.7806 107.991 29.5463 108.441 29.3802C108.892 29.2187 109.372 29.1345 109.88 29.1345C110.388 29.1345 110.877 29.2255 111.295 29.4075C111.709 29.5895 112.064 29.842 112.36 30.165C112.653 30.4881 112.875 30.8703 113.03 31.3116C113.184 31.7506 113.258 32.2352 113.258 32.763H109.407V32.7607Z" fill="#1F242C"/>
<path d="M112.918 29.355H117.349V29.6393C117.033 29.6484 116.846 29.7326 116.783 29.8919C116.721 30.0511 116.73 30.2445 116.809 30.4697L117.901 33.4998L118.783 30.9474C118.88 30.638 118.917 30.3946 118.896 30.224C118.873 30.0488 118.825 29.9192 118.744 29.8327C118.668 29.7463 118.568 29.6939 118.455 29.6712C118.34 29.6507 118.245 29.6393 118.167 29.6393V29.355H120.783V29.6393C120.556 29.6666 120.376 29.744 120.245 29.8805C120.113 30.0124 120.014 30.1808 119.942 30.3787L118.021 35.7792H115.811L113.957 30.9337C113.807 30.5197 113.664 30.2058 113.523 29.9897C113.384 29.7736 113.181 29.6553 112.918 29.6393V29.355Z" fill="#1F242C"/>
<path d="M123.289 26.2202C123.49 26.2202 123.686 26.2452 123.875 26.2953C124.065 26.3476 124.231 26.4295 124.381 26.541C124.531 26.6547 124.651 26.7958 124.741 26.9709C124.834 27.1438 124.88 27.3508 124.88 27.592C124.88 27.8331 124.831 28.0242 124.741 28.188C124.649 28.3518 124.529 28.486 124.381 28.5884C124.231 28.693 124.065 28.7704 123.875 28.8204C123.686 28.875 123.501 28.9 123.317 28.9C123.123 28.9 122.936 28.875 122.756 28.8204C122.575 28.7681 122.414 28.6885 122.271 28.5747C122.125 28.461 122.01 28.3245 121.922 28.1607C121.834 27.9969 121.79 27.799 121.79 27.5647C121.79 27.3304 121.834 27.1324 121.922 26.9641C122.01 26.798 122.123 26.657 122.266 26.5501C122.405 26.4432 122.566 26.3613 122.744 26.3044C122.924 26.2475 123.104 26.2202 123.289 26.2202ZM124.841 34.4439C124.841 34.66 124.859 34.8352 124.894 34.9694C124.928 35.1036 124.979 35.2083 125.046 35.2856C125.111 35.3652 125.194 35.4176 125.289 35.4471C125.386 35.479 125.496 35.4926 125.619 35.4926V35.777H121.199V35.4926C121.315 35.4926 121.419 35.479 121.516 35.4471C121.61 35.4176 121.693 35.363 121.758 35.2856C121.825 35.206 121.876 35.1036 121.91 34.9694C121.945 34.8352 121.964 34.66 121.964 34.4439V30.7518C121.964 30.563 121.959 30.4014 121.952 30.2741C121.943 30.1444 121.915 30.0352 121.867 29.951C121.816 29.8623 121.742 29.7963 121.643 29.7508C121.541 29.7008 121.398 29.6644 121.213 29.6394V29.355H124.843V34.4439H124.841Z" fill="#1F242C"/>
<path d="M129.79 32.1647V30.0263C129.79 29.9239 129.732 29.8466 129.619 29.8011C129.503 29.7556 129.386 29.7305 129.263 29.7305C129.141 29.7305 129.021 29.7556 128.903 29.8011C128.785 29.8466 128.725 29.9239 128.725 30.0263V32.1647H129.792H129.79ZM128.723 32.7607V34.4828C128.723 34.5783 128.751 34.6579 128.808 34.7239C128.866 34.7876 128.935 34.8422 129.021 34.8854C129.104 34.9264 129.199 34.9582 129.303 34.981C129.406 35.0037 129.513 35.0174 129.619 35.0265C130.118 35.0606 130.593 34.9446 131.044 34.683C131.496 34.4213 131.905 34.0665 132.274 33.6274L132.577 33.8344C132.207 34.5328 131.75 35.0697 131.196 35.4428C130.644 35.8136 130 36.0001 129.263 36.0001C128.737 36.0001 128.245 35.9273 127.785 35.7794C127.324 35.6316 126.926 35.4155 126.587 35.1311C126.25 34.8467 125.984 34.4941 125.786 34.0687C125.59 33.6456 125.49 33.1542 125.49 32.5923C125.49 32.0737 125.59 31.6028 125.786 31.1819C125.984 30.7588 126.25 30.3948 126.582 30.0877C126.913 29.7806 127.305 29.5463 127.758 29.3802C128.208 29.2187 128.688 29.1345 129.196 29.1345C129.704 29.1345 130.194 29.2255 130.61 29.4075C131.025 29.5895 131.381 29.842 131.676 30.165C131.967 30.4881 132.191 30.8703 132.346 31.3116C132.498 31.7506 132.575 32.2352 132.575 32.763H128.723V32.7607Z" fill="#1F242C"/>
<path d="M140.619 29.355V29.6393C140.302 29.6484 140.115 29.7326 140.053 29.8919C139.993 30.0511 139.995 30.2445 140.064 30.4697L141.078 33.4225L142.025 30.9497C142.147 30.6471 142.2 30.4105 142.182 30.2308C142.163 30.0534 142.115 29.9214 142.029 29.835C141.946 29.7485 141.847 29.6962 141.736 29.6735C141.621 29.653 141.524 29.6416 141.445 29.6416V29.3573H143.999V29.6416C143.787 29.6689 143.614 29.7463 143.47 29.8828C143.332 30.0147 143.226 30.183 143.156 30.381L141.171 35.7815H139.014L138.028 32.8014L137.016 35.7815H134.807L132.994 30.936C132.844 30.5311 132.705 30.2172 132.574 29.9965C132.442 29.7781 132.239 29.6575 131.969 29.6416V29.3573H135.94V29.6416C135.809 29.6507 135.749 29.7349 135.756 29.8941C135.765 30.0534 135.806 30.2467 135.876 30.4719L136.795 33.4111L137.665 30.6517C137.753 30.3923 137.739 30.158 137.631 29.9533C137.522 29.744 137.3 29.6416 136.968 29.6416V29.3573H140.623L140.619 29.355Z" fill="#1F242C"/>
<path d="M42.2639 5.69413C42.0769 5.9148 41.8021 6.10816 41.4442 6.2765C41.0863 6.44484 40.6337 6.52901 40.0934 6.52901C39.4053 6.52901 38.8488 6.31972 38.4193 5.9057C37.9898 5.48939 37.7773 4.94797 37.7773 4.28598V3.14171C37.7773 2.48427 37.9875 1.94513 38.4054 1.52655C38.8234 1.10797 39.3614 0.898682 40.0218 0.898682C40.7376 0.898682 41.2687 1.0602 41.6266 1.38778C41.9845 1.71536 42.1854 2.15897 42.2339 2.72314L42.227 2.74589H41.017C40.9754 2.45698 40.8808 2.24086 40.733 2.09527C40.5875 1.94968 40.3635 1.87688 40.0633 1.87688C39.7632 1.87688 39.523 1.99517 39.3406 2.22721C39.1559 2.4638 39.0635 2.76408 39.0635 3.13489V4.28598C39.0635 4.66589 39.1536 4.97299 39.336 5.20276C39.5161 5.4348 39.7701 5.55081 40.0957 5.55081C40.3335 5.55081 40.5159 5.53034 40.6522 5.49394C40.7861 5.45754 40.8946 5.40522 40.9731 5.34152V4.47707H40.098V3.63536H42.2662V5.69186L42.2639 5.69413Z" fill="#1F242C"/>
<path d="M44.6525 5.47344H47.0424V6.44936H43.3594V0.978271H44.6525V5.47344Z" fill="#1F242C"/>
<path d="M51.1211 3.21451C51.1211 2.82323 51.0265 2.50247 50.8394 2.25224C50.6524 2.002 50.3891 1.87688 50.0497 1.87688C49.7103 1.87688 49.4355 2.002 49.2508 2.24996C49.066 2.5002 48.9737 2.81868 48.9737 3.21451V4.20636C48.9737 4.60219 49.066 4.92522 49.2531 5.17546C49.4401 5.4257 49.708 5.55081 50.0566 5.55081C50.4053 5.55081 50.657 5.4257 50.8417 5.17546C51.0288 4.92522 51.1211 4.60219 51.1211 4.20636V3.21451ZM52.4073 4.20636C52.4073 4.882 52.1902 5.43479 51.7561 5.87385C51.322 6.31062 50.754 6.52901 50.0566 6.52901C49.3593 6.52901 48.782 6.31062 48.3433 5.87385C47.9069 5.43707 47.6875 4.882 47.6875 4.20636V3.22134C47.6875 2.54797 47.9046 1.99517 48.341 1.5584C48.7797 1.11935 49.3477 0.898682 50.0497 0.898682C50.7517 0.898682 51.3128 1.11935 51.7515 1.5584C52.1879 1.99517 52.4073 2.55025 52.4073 3.22134V4.20636Z" fill="#1F242C"/>
<path d="M54.6134 4.10152V5.47327H55.5024C55.7772 5.47327 55.9827 5.41867 56.1212 5.31403C56.2575 5.20711 56.3291 5.04332 56.3291 4.82265C56.3291 4.58379 56.269 4.40635 56.149 4.28351C56.0312 4.16294 55.8395 4.10152 55.5763 4.10152H54.6157H54.6134ZM54.6134 3.25981H55.253C55.5463 3.25526 55.7656 3.19839 55.9111 3.09374C56.0566 2.98683 56.1282 2.83213 56.1282 2.62512C56.1282 2.39308 56.0543 2.22247 55.9065 2.11782C55.7587 2.0109 55.5324 1.95858 55.2299 1.95858H54.6157V3.26209L54.6134 3.25981ZM53.3203 6.44919V0.97583H55.2276C55.9157 0.97583 56.4538 1.10322 56.8417 1.35574C57.2273 1.60597 57.419 1.98133 57.419 2.47953C57.419 2.73886 57.3566 2.97318 57.2319 3.17337C57.1072 3.3781 56.9156 3.52825 56.657 3.63289C56.9825 3.70569 57.2227 3.85128 57.3774 4.06967C57.5344 4.29033 57.6106 4.54284 57.6106 4.8272C57.6106 5.35953 57.4282 5.76446 57.0657 6.03744C56.7031 6.31043 56.179 6.44692 55.5024 6.44692H53.3203V6.44919Z" fill="#1F242C"/>
<path d="M59.9895 4.40863H61.1672L60.5899 2.44995H60.5645L59.9895 4.40863ZM61.4535 5.38455H59.7032L59.3915 6.44692H58.0938L59.8879 0.97583H61.2734L63.0699 6.44692H61.7721L61.4558 5.38455H61.4535Z" fill="#1F242C"/>
<path d="M65.2189 5.47344H67.6111V6.44936H63.9258V0.978271H65.2189V5.47344Z" fill="#1F242C"/>
<path d="M73.2208 4.10152V5.47327H74.1098C74.3846 5.47327 74.5901 5.41867 74.7287 5.31403C74.8649 5.20711 74.9319 5.04332 74.9319 4.82265C74.9319 4.58379 74.8741 4.40635 74.7541 4.28351C74.6363 4.16294 74.4447 4.10152 74.1814 4.10152H73.2208ZM73.2208 3.25981H73.8604C74.1537 3.25526 74.3708 3.19839 74.5185 3.09374C74.664 2.98683 74.7356 2.83213 74.7356 2.62512C74.7356 2.39308 74.6617 2.22247 74.5139 2.11782C74.3661 2.0109 74.1398 1.95858 73.8374 1.95858H73.2231V3.26209L73.2208 3.25981ZM71.9277 6.44919V0.97583H73.8351C74.5232 0.97583 75.0612 1.10322 75.4468 1.35574C75.8324 1.60597 76.0264 1.98133 76.0264 2.47953C76.0264 2.73886 75.964 2.97318 75.8393 3.17337C75.7147 3.3781 75.523 3.52825 75.2644 3.63289C75.59 3.70569 75.8301 3.85128 75.9848 4.06967C76.1395 4.29033 76.2157 4.54284 76.2157 4.8272C76.2157 5.35953 76.0356 5.76446 75.6731 6.03744C75.3059 6.31043 74.7864 6.44692 74.1098 6.44692H71.9277V6.44919Z" fill="#1F242C"/>
<path d="M78.5969 4.40863H79.7746L79.1973 2.44995H79.1719L78.5969 4.40863ZM80.0609 5.38455H78.3106L77.9989 6.44692H76.7012L78.493 0.97583H79.8785L81.6773 6.44692H80.3796L80.0632 5.38455H80.0609Z" fill="#1F242C"/>
<path d="M87.1676 6.44919H85.8814L83.8494 2.9618L83.8263 2.96863V6.44919H82.5332V0.97583H83.8263L85.8583 4.46322L85.8814 4.45867V0.97583H87.1676V6.44919Z" fill="#1F242C"/>
<path d="M90.3947 4.2541H89.799V6.44936H88.5059V0.978271H89.799V3.12121H90.2377L91.4569 0.978271H93.0594L91.3391 3.45562L93.2095 6.44936H91.637L90.3947 4.2541Z" fill="#1F242C"/>
<path d="M95.3975 0.97583H94.1113V6.44919H95.3975V0.97583Z" fill="#1F242C"/>
<path d="M101.455 6.44919H100.169L98.1369 2.9618L98.1115 2.96863V6.44919H96.8184V0.97583H98.1115L100.143 4.46322L100.169 4.45867V0.97583H101.455V6.44919Z" fill="#1F242C"/>
<path d="M107.18 5.69413C106.991 5.9148 106.718 6.10816 106.36 6.2765C106.002 6.44484 105.55 6.52901 105.009 6.52901C104.321 6.52901 103.765 6.31972 103.335 5.9057C102.906 5.48939 102.693 4.94797 102.693 4.28598V3.14171C102.693 2.48427 102.903 1.94513 103.321 1.52655C103.739 1.10797 104.28 0.898682 104.938 0.898682C105.654 0.898682 106.189 1.0602 106.543 1.38778C106.898 1.71309 107.104 2.15897 107.15 2.72314L107.143 2.74589H105.933C105.891 2.45698 105.797 2.24086 105.649 2.09527C105.504 1.94968 105.28 1.87688 104.982 1.87688C104.684 1.87688 104.439 1.99517 104.257 2.22721C104.072 2.4638 103.98 2.76408 103.98 3.13489V4.28598C103.98 4.66589 104.072 4.97299 104.252 5.20276C104.434 5.4348 104.686 5.55081 105.012 5.55081C105.25 5.55081 105.432 5.53034 105.568 5.49394C105.704 5.45754 105.811 5.40522 105.889 5.34152V4.47707H105.014V3.63536H107.182V5.69186L107.18 5.69413Z" fill="#1F242C"/>
<path d="M112.536 2.36135C112.536 2.4569 112.56 2.55699 112.608 2.65936C112.654 2.76173 112.728 2.8732 112.825 2.99377L113.054 2.85045C113.195 2.75946 113.289 2.67074 113.34 2.58429C113.386 2.50012 113.412 2.40458 113.412 2.30221C113.412 2.19984 113.372 2.09292 113.294 2.00875C113.218 1.92003 113.114 1.8768 112.987 1.8768C112.841 1.8768 112.728 1.9223 112.65 2.01557C112.569 2.10657 112.532 2.22259 112.532 2.36135M112.834 5.55074C112.941 5.55074 113.054 5.53936 113.162 5.51661C113.271 5.49386 113.382 5.45747 113.488 5.41197L112.47 4.2768L112.435 4.30183C112.359 4.39737 112.301 4.49064 112.271 4.58391C112.239 4.67946 112.22 4.78183 112.22 4.89557C112.22 5.08666 112.28 5.24363 112.4 5.36647C112.518 5.49159 112.661 5.55301 112.834 5.55301M111.904 3.56704C111.742 3.34183 111.62 3.13481 111.539 2.946C111.456 2.75946 111.417 2.56837 111.417 2.37728C111.417 1.9405 111.562 1.58562 111.848 1.31263C112.137 1.03737 112.516 0.900879 112.989 0.900879C113.395 0.900879 113.721 1.02827 113.975 1.28306C114.229 1.53785 114.354 1.8495 114.354 2.21576C114.354 2.46145 114.296 2.68894 114.183 2.89822C114.065 3.10979 113.908 3.28495 113.712 3.426L113.377 3.65349L114.308 4.70676C114.398 4.56799 114.465 4.4133 114.515 4.24495C114.564 4.07661 114.587 3.89917 114.587 3.71491H115.494C115.494 4.06979 115.455 4.39737 115.374 4.69083C115.294 4.98429 115.167 5.25045 114.991 5.47794L115.832 6.43112L115.825 6.45159H114.416L114.134 6.13538C113.913 6.2696 113.691 6.37197 113.472 6.43567C113.252 6.49936 113.01 6.53121 112.744 6.53121C112.192 6.53121 111.751 6.38562 111.421 6.10126C111.093 5.8169 110.932 5.44382 110.932 4.98202C110.932 4.69083 111.008 4.44514 111.165 4.23813C111.32 4.03339 111.564 3.81273 111.89 3.57614L111.901 3.56931L111.904 3.56704Z" fill="#1F242C"/>
<path d="M22.3405 0V10.3166H20.9089C20.7842 9.22919 20.4956 8.17137 20.043 7.14313C19.5927 6.11716 18.9946 5.20265 18.2534 4.39735C17.5145 3.59204 16.6209 2.9437 15.5772 2.44777C14.5358 1.95185 13.3466 1.70616 12.0165 1.70616V12.546C12.8201 12.546 13.5152 12.3958 14.1086 12.1001C14.6974 11.8021 15.1869 11.4085 15.5749 10.9126C15.9651 10.419 16.2653 9.83659 16.48 9.17005C16.6948 8.49896 16.8264 7.79602 16.8772 7.05213H17.9325V20.5263H16.8772C16.7779 19.3388 16.5516 18.3424 16.2006 17.5393C15.8497 16.734 15.434 16.0789 14.9583 15.5716C14.4804 15.0665 13.9793 14.6798 13.4505 14.4205C12.9217 14.1611 12.446 13.9928 12.0189 13.92V23.015C12.0189 23.6087 12.1135 24.1024 12.3006 24.4982C12.4899 24.8963 12.7301 25.2171 13.0187 25.465C13.3073 25.7107 13.6214 25.8927 13.9608 26.0019C14.3002 26.1134 14.605 26.168 14.8844 26.168V26.9824H0V26.168C0.277092 26.168 0.577275 26.1065 0.905167 25.9814C1.23075 25.8586 1.53786 25.6675 1.8265 25.4082C2.11513 25.1488 2.35528 24.8144 2.54463 24.4049C2.73166 23.9977 2.82634 23.4973 2.82634 22.9035V4.00834C2.82634 3.4146 2.73166 2.92095 2.54463 2.52284C2.35528 2.12701 2.11513 1.81308 1.8265 1.57877C1.53786 1.34218 1.23075 1.16474 0.905167 1.03962C0.579584 0.916777 0.277092 0.843981 0 0.818957V0H22.3405Z" fill="#1F242C"/>
</g>
<defs>
<clipPath id="clip0_1734_2242">
<rect width="144" height="36" fill="white"/>
</clipPath>
</defs>
</svg>
