<svg width="122" height="30" viewBox="0 0 122 30" fill="none" xmlns="http://www.w3.org/2000/svg">
<g clip-path="url(#clip0_1557_2299)">
<path fill-rule="evenodd" clip-rule="evenodd" d="M36.1571 8.18206V0H38.7408V30H36.1571V16.3641H33.5759V30H30.993V16.3641H2.58289V19.0906H28.411V30H25.8272V21.8179H12.9136V30H10.3299V21.8179H7.74784V30H5.16578V21.8179H2.58373V30H0V0H2.58373V13.6359H5.16578V0H7.74784V13.6359H36.1588V10.9076H10.3291V0H12.9128V8.18206H25.8264V0H28.411V8.18206H30.993V0H33.5759V8.18206H36.1571ZM56.1927 13.8688V10.9076H58.2968V19.0518H56.1927V16.0906H49.8838V19.0518H47.7805V10.9076H49.8846V13.8688H56.1927ZM96.1535 16.0906H94.0495L96.1535 13.8688V10.9085H94.0495V13.8688H87.7414V10.9085H85.6373V19.0518H87.7414V16.0906H94.0495V19.0518H96.1535V16.0906ZM69.5124 10.9076H60.3984V19.0518H62.5024V16.0906H68.813V19.0509H70.9171V10.9076H69.5133H69.5124ZM62.5024 13.8688V13.1276H68.813V13.8688H62.5024ZM83.5332 10.9076V13.1294H75.1211V16.8291H83.5332V19.0509H73.0162V10.9076H83.5324H83.5332ZM108.771 13.1294V10.9076H98.2543V19.0518H108.771V16.83H100.358V16.0906H108.771V13.8688H100.358V13.1294H108.771ZM119.285 16.0906V10.9076H121.389V19.0518H119.285L112.977 13.8688V19.0509H110.873V10.9076H112.977L119.285 16.0906Z" fill="#1F242C"/>
</g>
<defs>
<clipPath id="clip0_1557_2299">
<rect width="122" height="30" fill="white"/>
</clipPath>
</defs>
</svg>
