<svg width="216" height="28" viewBox="0 0 216 28" fill="none" xmlns="http://www.w3.org/2000/svg">
<g clip-path="url(#clip0_1734_2177)">
<path fill-rule="evenodd" clip-rule="evenodd" d="M8.92927 3.98364H15.1804V6.20316H19.7572V10.6991H21.9339V17.4145H19.7572V21.9105H15.1804V24.0162H8.92927V21.9105H4.35253V17.4145H2.17578V10.6991H4.35253V6.20316H8.92927V3.98364Z" fill="#DCE1F5"/>
<path fill-rule="evenodd" clip-rule="evenodd" d="M19.7581 0H4.35349V3.98374V6.20325L2.17674 6.20325V10.6992H0V17.4146H2.17674V21.9106H4.35349V24.0163V28H19.7581V24.0163V21.9106H21.9349L21.9349 17.4146H24.1116V15.1951H26.3442V12.9756H24.1116V10.6992H21.9349V6.20325H19.7581V3.98374V0ZM13.1721 3.98374H15.1814V6.20325L19.7581 6.20325V10.6992H21.9349L21.9349 17.4146H19.7581V21.9106H15.1814V24.0163H8.93023V21.9106H4.35349V17.4146H2.17674V10.6992H4.35349V6.20325H8.93023V3.98374H10.9395V15.1951H13.1721V3.98374Z" fill="#1F242C"/>
<path fill-rule="evenodd" clip-rule="evenodd" d="M101.86 6.31714V9.50413L104.986 9.50413V6.31714H101.86ZM36.9487 6.37405H33.8789V12.6911V15.8212V22.1383H36.9487V15.8212L46.2696 15.8212V22.1383H49.3394V6.37405H46.2696V12.6911L36.9487 12.6911V6.37405ZM52.4091 9.50413V12.6911V15.8212L52.4091 22.1383H55.4789V15.8212L64.7998 15.8212V22.1383H67.8696V15.8212L67.8696 12.6911L67.8696 9.50413L67.8696 6.37405L67.8696 6.37405L64.7998 6.37405L55.4789 6.37405V6.37405L52.4091 6.37405L52.4091 6.37405V9.50413ZM64.7998 9.50413L55.4789 9.50413V12.6911L64.7998 12.6911V9.50413ZM126.53 12.6911H126.474V15.8212H126.53V22.1383H129.6V15.8212H135.684V19.0082H138.809V22.1952H141.935V19.0082L138.809 19.0082V15.8212H138.865L141.935 15.8212V12.6911V9.50413V6.37405L129.6 6.37405V6.37405L126.53 6.37405L126.53 6.37405V9.50413L126.53 12.6911ZM138.865 9.50413L138.865 12.6911L129.6 12.6911V9.50413L138.865 9.50413ZM89.4696 6.37405L89.4696 12.6911V15.8212L89.4696 22.1383H92.5394V15.8212H98.7347V19.0082H101.86V22.1952H104.986V19.0082L101.86 19.0082V15.8212H98.7347V12.6911L92.5394 12.6911V6.37405L89.4696 6.37405ZM108 12.6911V15.8212V19.0082V22.1383H111.07L123.46 22.1383V19.0082L111.07 19.0082V15.8212H117.265V12.6911L111.07 12.6911V9.50413L123.46 9.50413V6.37405L111.07 6.37405V6.37405L108 6.37405L108 6.37405V9.50413V12.6911ZM98.7347 12.6911V9.50413L101.86 9.50413V12.6911H98.7347ZM70.9394 6.37405V6.37405L74.0091 6.37405V6.37405L86.3998 6.37405V9.50413L74.0091 9.50413V19.0082L86.3998 19.0082V22.1383L74.0091 22.1383H70.9394V19.0082V9.50413V6.37405ZM145.004 6.37405L148.074 6.37405V6.37405L157.339 6.37405L160.409 6.37405V22.1383H157.339L157.339 9.50413L148.074 9.50413V22.1383H145.004V9.50413V6.37405L145.004 6.37405ZM163.479 6.37405V9.50413V19.0082V22.1383H166.549H175.87L178.939 22.1383V19.0082V9.50413V6.37405V6.37405L175.87 6.37405L166.549 6.37405V6.37405L163.479 6.37405V6.37405ZM175.87 9.50413L166.549 9.50413V19.0082L175.87 19.0082V9.50413ZM182.009 6.37405L185.079 6.37405V6.37405L194.4 6.37405L197.47 6.37405V6.37405V9.50413V19.0082V22.1383L194.4 22.1383H185.079H182.009V19.0082V9.50413V6.37405V6.37405ZM185.079 9.50413L194.4 9.50413V19.0082L185.079 19.0082V9.50413ZM200.539 22.1383H203.609V9.50413L212.93 9.50413V22.1383H216L216 9.50413V6.37405L216 6.37405L212.93 6.37405L203.609 6.37405V6.37405L200.539 6.37405V6.37405V9.50413V22.1383Z" fill="#1F242C"/>
</g>
<defs>
<clipPath id="clip0_1734_2177">
<rect width="216" height="28" fill="white"/>
</clipPath>
</defs>
</svg>
