<svg width="115" height="36" viewBox="0 0 115 36" fill="none" xmlns="http://www.w3.org/2000/svg">
<g clip-path="url(#clip0_1557_2269)">
<path d="M48.2172 2.39844H45.4062V15.7396H48.2172V2.39844Z" fill="#1F242C"/>
<path d="M86.9243 2.39844H84.1133V15.7396H86.9243V2.39844Z" fill="#1F242C"/>
<path d="M91.9065 15.7396H89.0859V6.25114V2.39844H89.096L91.9065 5.14157L98.8066 11.8521V2.39844H101.627V15.7396H98.8066L91.9065 9.00433V15.7396Z" fill="#1F242C"/>
<path d="M50.3809 15.7396H53.1918V9.04467L57.7326 13.4917L62.2734 9.04467V15.7396H65.0844V6.29169V2.39844L57.7326 9.59844L50.3809 2.39844V6.29169V15.7396Z" fill="#1F242C"/>
<path d="M67.2441 15.7396H70.0551V9.04467L74.5959 13.4917L76.5836 11.5451L79.1367 9.04467V15.7396H81.9477V6.29169V2.39844L74.5959 9.59844L67.2441 2.39844V6.29169V15.7396Z" fill="#1F242C"/>
<path d="M45.4062 19.9766H46.5375V32.2485H54.1798V33.3177H45.4062V19.9766Z" fill="#1F242C"/>
<path d="M66.3388 33.3177L65.084 30.3334H57.6507L56.3864 33.3177H55.1602L60.8159 19.9766H61.9186L67.5555 33.3177H66.3388ZM61.3673 21.4548L58.0879 29.2736H64.6277L61.3673 21.4548Z" fill="#1F242C"/>
<path d="M70.3772 25.6903H74.1795C74.8543 25.6903 75.2345 25.616 75.5672 25.4857C76.4227 25.1325 77.0121 24.3422 77.0121 23.3474C77.0121 22.334 76.4227 21.5717 75.5672 21.2185C75.2345 21.079 74.8543 21.0139 74.1795 21.0139H70.3772V25.6903ZM70.3772 32.2726H74.8448C75.6148 32.2726 76.0235 32.1796 76.3942 32.0402C77.4113 31.6404 78.1052 30.7014 78.1052 29.5021C78.1052 28.3121 77.4018 27.3731 76.3942 26.964C76.0235 26.8152 75.6148 26.7409 74.8448 26.7409H70.3772V32.2726ZM69.2461 33.3138V19.9727H74.284C75.0919 19.9727 75.5577 20.0656 75.9855 20.233C77.2877 20.735 78.1337 21.9343 78.1337 23.3754C78.1337 24.4817 77.5919 25.4486 76.6794 26.0343C78.2288 26.5363 79.2269 27.8844 79.2269 29.5207C79.2269 31.1476 78.2573 32.505 76.7744 33.0535C76.3087 33.2209 75.8144 33.3138 74.9304 33.3138H69.2461Z" fill="#1F242C"/>
<path d="M80.6934 30.7703L81.5013 30.0266C82.7751 31.4862 84.4671 32.2485 86.1115 32.2579C88.4404 32.2579 89.6856 30.8634 89.6856 29.3479C89.6856 27.4606 87.7845 26.9679 85.7122 26.5495C83.5355 26.1126 81.1306 25.657 81.1306 23.3049C81.1306 21.4548 82.7656 19.9859 85.4367 19.9766C87.043 19.9766 88.8016 20.6738 90.0563 21.994L89.2769 22.7378C88.2883 21.6779 86.8815 21.0364 85.4081 21.0364C83.3644 21.0364 82.2523 22.087 82.2523 23.2955C82.2523 24.718 83.7636 25.0527 86.0544 25.499C87.8985 25.8615 90.8168 26.4566 90.8168 29.3944C90.8168 31.5792 88.9347 33.3177 86.1115 33.3177C84.2199 33.3177 82.2427 32.4903 80.6934 30.7703Z" fill="#1F242C"/>
<path fill-rule="evenodd" clip-rule="evenodd" d="M36.8984 0H0V36H36.8984V0ZM18.4529 23.115L13.8379 25.781V21.8318L16.6784 20.1909L18.4529 19.1657L20.2275 20.1909L23.0679 21.8318V25.781L18.4529 23.115ZM24.8095 26.7871L28.2925 28.7992V24.85V11.1485V7.19922L24.8095 9.21133L18.4529 12.8834L13.8379 10.2174V14.1666L16.6784 15.8075L18.4529 16.8327L20.2275 15.8075L24.8095 13.1606V22.8379V26.7871ZM8.61133 7.19922L12.0944 9.21132L12.0944 26.7871L8.61133 28.7992V24.85V11.1485V7.19922Z" fill="#1F242C"/>
<path d="M109.243 4.96719C108.244 4.96719 107.129 5.37031 107.129 6.35469C107.129 7.31094 108.206 7.75156 109.243 7.75156C110.252 7.75156 111.367 7.32969 111.367 6.35469C111.367 5.38906 110.3 4.96719 109.243 4.96719ZM109.243 9.95469C108.09 9.95469 106.803 10.4516 106.803 11.6141C106.803 12.7484 108.042 13.2734 109.243 13.2734C110.406 13.2734 111.694 12.7766 111.694 11.6141C111.694 10.4797 110.464 9.95469 109.243 9.95469ZM112.731 8.70781C114.009 9.58906 114.567 10.6297 114.567 11.7922C114.567 14.3984 111.896 15.8422 109.243 15.8422C106.707 15.8422 103.93 14.4641 103.93 11.7922C103.93 10.6297 104.487 9.58906 105.765 8.70781C104.862 8.07969 104.362 7.22656 104.362 6.11094C104.362 3.72969 106.822 2.39844 109.243 2.39844C111.588 2.39844 114.134 3.66406 114.134 6.11094C114.134 7.22656 113.635 8.07969 112.731 8.70781Z" fill="#1F242C"/>
</g>
<defs>
<clipPath id="clip0_1557_2269">
<rect width="115" height="36" fill="white"/>
</clipPath>
</defs>
</svg>
