<svg width="180" height="32" viewBox="0 0 180 32" fill="none" xmlns="http://www.w3.org/2000/svg">
<g clip-path="url(#clip0_1734_2142)">
<path fill-rule="evenodd" clip-rule="evenodd" d="M76.183 15.303C75.083 14.643 73.651 14.312 72.33 14.092C71.78 13.982 71.12 13.872 70.569 13.762C69.689 13.542 67.596 13.101 67.596 11.89C67.596 10.9 68.807 10.569 69.798 10.569C71.56 10.569 72.661 11.119 72.991 12.771L78.055 11.339C77.505 7.92696 73.211 6.82596 69.908 6.82596C66.495 6.82596 61.872 7.92596 61.872 12.22C61.872 15.963 64.734 16.844 67.706 17.505C68.477 17.615 69.248 17.835 69.908 18.055C70.899 18.275 72.771 18.605 72.771 19.927C72.771 21.247 71.119 21.798 69.798 21.798C67.927 21.798 66.606 20.698 66.385 18.826L61.431 20.146C62.091 24.22 66.165 25.431 69.908 25.431C74.092 25.431 78.495 23.78 78.495 19.156C78.385 17.615 77.505 16.183 76.183 15.303ZM0 25.1H6.275V1.20996L0 2.97296V25.1ZM19.486 6.93596C17.395 6.93596 14.972 8.03596 13.872 10.018V6.82596L8.257 8.36696V25.101H13.982V15.413C13.982 13.211 15.082 11.67 17.284 11.67C20.147 11.67 20.037 14.202 20.037 16.404V25.1H25.762V13.76C25.872 9.46696 24.11 6.93596 19.486 6.93596ZM52.183 6.93596C46.899 6.93596 42.716 10.789 42.716 16.183C42.716 22.239 46.789 25.541 52.404 25.541C55.266 25.541 58.569 24.551 60.661 22.789L59.119 18.605C57.689 20.477 55.266 21.688 52.734 21.688C51.083 21.688 49.431 21.028 48.881 19.486L61.101 16.073C61.101 10.569 57.687 6.93596 52.183 6.93596ZM48.33 15.743C48.22 13.211 49.541 10.789 52.184 10.789C53.945 10.789 55.266 12.11 55.596 13.762L48.33 15.743ZM88.294 11.119L89.284 7.37596H85.101V2.53196L79.376 4.18396V19.046C79.376 23.89 80.697 25.321 85.541 25.211C86.201 25.211 87.303 25.101 88.073 24.991L89.284 20.587C88.514 20.807 86.972 21.027 86.092 20.697C85.432 20.477 85.101 19.927 85.101 19.156V11.119H88.294ZM38.092 7.37596L34.789 19.156L31.486 7.37596H25.431L31.266 24.991H37.872L43.816 7.37596H38.092ZM146.092 24.22C143.56 24.22 142.239 21.688 142.239 19.266C142.239 16.844 143.56 14.312 146.092 14.312C147.743 14.312 148.844 15.412 149.174 17.064L150.495 16.734C150.055 14.312 148.294 13.101 146.092 13.101C142.679 13.101 140.807 15.963 140.807 19.266C140.807 22.569 142.679 25.431 146.092 25.431C148.514 25.431 150.165 23.78 150.605 21.358L149.284 21.028C149.064 22.679 147.743 24.22 146.092 24.22ZM157.211 13.101C153.798 13.101 151.927 15.963 151.927 19.266C151.927 22.569 153.798 25.431 157.211 25.431C160.624 25.431 162.495 22.569 162.495 19.266C162.495 15.963 160.624 13.101 157.211 13.101ZM157.211 24.221C154.679 24.221 153.358 21.688 153.358 19.266C153.358 16.844 154.679 14.312 157.211 14.312C159.743 14.312 161.064 16.844 161.064 19.266C161.064 21.688 159.743 24.22 157.211 24.22V24.221ZM176.147 13.101C174.606 13.101 173.284 13.871 172.624 15.413C172.183 13.872 170.862 13.101 169.431 13.101C167.78 13.101 166.459 13.871 165.688 15.523V13.211L164.367 13.541V24.881H165.798V18.385C165.798 16.183 166.679 14.092 169.101 14.092C170.752 14.092 171.413 15.412 171.413 16.954V24.771H172.844V18.275C172.844 16.294 173.505 14.092 175.927 14.092C177.798 14.092 178.569 15.192 178.569 17.064V24.881H180V17.064C179.89 14.642 178.789 13.101 176.147 13.101ZM108.991 6.93596C106.899 6.93596 104.477 8.03596 103.376 10.018V6.82596L97.761 8.36696V25.101H103.486V15.413C103.486 13.211 104.587 11.67 106.789 11.67C109.651 11.67 109.541 14.202 109.541 16.404V25.1H115.266V13.76C115.376 9.46696 113.615 6.93596 108.991 6.93596ZM90.055 25.1H95.78V6.82596L90.055 8.47696V25.1ZM137.394 25.1H139.266V22.678H137.394V25.1ZM129.248 9.57696C128.147 7.81596 126.495 6.82496 124.404 6.82496C119.45 6.82496 116.697 10.788 116.697 15.412C116.697 20.366 119.119 24.109 124.404 24.219C126.275 24.219 128.037 23.229 129.138 21.577V23.339C129.138 25.54 128.147 27.412 125.725 27.412C124.183 27.412 122.862 26.532 122.422 24.99L117.248 26.421C118.459 30.164 122.092 31.155 125.505 31.155C130.569 31.155 134.752 28.403 134.752 22.788V6.71596L129.248 8.25596V9.57796V9.57696ZM125.725 19.926C123.303 19.926 122.422 17.834 122.422 15.742C122.422 13.54 123.193 11.338 125.835 11.338C128.367 11.338 129.358 13.54 129.248 15.742C129.248 17.944 128.257 19.926 125.725 19.926Z" fill="#1F242C"/>
<path fill-rule="evenodd" clip-rule="evenodd" d="M89.9453 1.651L96.1103 0V5.174L89.9453 6.826V1.65V1.651Z" fill="#1F242C"/>
</g>
<defs>
<clipPath id="clip0_1734_2142">
<rect width="180" height="32" fill="white"/>
</clipPath>
</defs>
</svg>
