<svg width="123" height="40" viewBox="0 0 123 40" fill="none" xmlns="http://www.w3.org/2000/svg">
<g clip-path="url(#clip0_1977_662)">
<mask id="mask0_1977_662" style="mask-type:luminance" maskUnits="userSpaceOnUse" x="0" y="0" width="123" height="41">
<path d="M122.989 0H0V40.0012H122.989V0Z" fill="white"/>
</mask>
<g mask="url(#mask0_1977_662)">
<path d="M98.2035 14.3404C95.9262 13.1416 93.3191 12.903 90.8627 13.665C88.4062 14.4294 86.3934 16.1042 85.1966 18.382C83.9986 20.6597 83.759 23.2686 84.5217 25.7279C85.7802 29.7837 89.4785 32.5078 93.7236 32.5078C94.6879 32.5078 95.6463 32.3618 96.575 32.0733C101.647 30.4971 104.491 25.0858 102.916 20.0104C102.153 17.5523 100.48 15.538 98.2023 14.3392L98.2035 14.3404ZM88.7656 24.4081C88.3552 23.0834 88.4833 21.6793 89.1286 20.452C89.7738 19.2247 90.8579 18.3226 92.1804 17.9119C93.4863 17.5048 94.9215 17.6366 96.1337 18.2751C97.3602 18.9208 98.2616 20.0057 98.672 21.3303C99.0824 22.6514 98.9531 24.0555 98.3067 25.2852C97.6615 26.5137 96.5785 27.4158 95.2572 27.8265C93.9371 28.2371 92.5339 28.1066 91.3063 27.4609C90.0786 26.814 89.176 25.7303 88.7668 24.4093L88.7656 24.4081Z" fill="#1F242C"/>
<path d="M51.09 14.5782C42.0079 9.7117 32.8131 18.9129 37.6774 28.0013C38.3938 29.3402 39.4945 30.4417 40.8325 31.1586C49.9145 36.0262 59.1093 26.8239 54.245 17.7354C53.5286 16.3966 52.4279 15.2951 51.09 14.5782ZM50.2063 19.7283C53.3709 24.8654 47.9563 30.2838 42.8228 27.1158C42.3744 26.8393 41.9948 26.4595 41.7173 26.0096C38.5468 20.8725 43.9662 15.4494 49.1008 18.6209C49.5492 18.8986 49.9288 19.2785 50.2063 19.7271V19.7283Z" fill="#1F242C"/>
<path d="M63.9108 15.0432C61.6015 16.4972 60.209 19.0468 60.209 21.7767V32.5055H64.6534V21.8646C64.6534 20.9352 65.2476 19.7008 65.9782 19.1263C70.2542 15.7637 75.0259 18.7678 75.0259 22.8664V32.5043H79.4703V22.8664C79.4703 15.6509 71.5055 10.261 63.9108 15.042V15.0432Z" fill="#1F242C"/>
<path d="M34.2713 13.4206C31.7816 12.9185 28.9528 13.3684 26.1523 15.2794C23.996 16.75 22.7363 19.2188 22.7363 21.8301V32.5078H27.1807V22.8699C27.1807 20.1043 29.3548 17.8432 32.0829 17.6948L34.2713 13.423V13.4206Z" fill="#1F242C"/>
<path d="M112.132 20.426C112.132 18.7192 113.52 17.3304 115.226 17.3304C116.355 17.3304 117.395 17.9465 117.941 18.9387C118.032 19.1061 118.293 19.6343 118.443 20.026H122.99C122.5 18.6515 121.987 17.512 121.65 16.8996C120.362 14.553 117.901 13.0942 115.226 13.0942C111.186 13.0942 107.9 16.3833 107.9 20.4248C107.9 22.8046 109.062 25.0444 111.007 26.4177C111.086 26.4735 110.966 26.4153 113.239 27.7376L115.367 24.0758C114.42 23.5251 113.647 23.08 113.424 22.9399C112.615 22.3583 112.134 21.4195 112.134 20.4248L112.132 20.426Z" fill="#1F242C"/>
<path d="M118.678 32.6695C118.678 34.3763 117.29 35.765 115.585 35.765C114.455 35.765 113.415 35.149 112.87 34.1567C112.778 33.9894 112.517 33.4612 112.368 33.0695H107.82C108.31 34.444 108.824 35.5834 109.161 36.1959C110.449 38.5425 112.91 40.0012 115.585 40.0012C119.625 40.0012 122.91 36.7122 122.91 32.6707C122.91 30.2908 121.749 28.0511 119.804 26.6778C119.724 26.622 119.844 26.6802 117.571 25.3579L115.443 29.0196C116.39 29.5704 117.163 30.0155 117.386 30.1555C118.195 30.7371 118.677 31.676 118.677 32.6707L118.678 32.6695Z" fill="#1F242C"/>
<path d="M4.41953 13.231H0.0273438V32.5069H4.41953V13.231Z" fill="#1F242C"/>
<path d="M4.39218 0H0V10.692H4.39218V0Z" fill="#1F242C"/>
<path d="M14.5486 33.2033L8.38909 27.0395C7.27533 25.925 6.66211 24.4437 6.66211 22.8674C6.66211 21.2912 7.27533 19.8099 8.38909 18.6965L14.5486 12.5327L17.5412 15.5274L11.1717 21.9013C10.7198 22.6609 10.8432 23.5048 11.3817 24.0437L17.5412 30.2075L14.5486 33.2022V33.2033Z" fill="#1F242C"/>
</g>
</g>
<defs>
<clipPath id="clip0_1977_662">
<rect width="123" height="40" fill="white"/>
</clipPath>
</defs>
</svg>
