<svg width="122" height="42" viewBox="0 0 122 42" fill="none" xmlns="http://www.w3.org/2000/svg">
<g clip-path="url(#clip0_1734_2151)">
<path fill-rule="evenodd" clip-rule="evenodd" d="M10.6886 40.736H13.1559V25.1111H10.6886V40.736ZM20.5552 40.5028H23.0734V30.6408L33.7099 40.736V25.3456H31.1941V35.0389L20.5552 25.1111V40.5028ZM40.4152 36.7183C41.8401 37.8282 43.5469 38.4694 45.3781 38.4694C47.1595 38.4694 48.4068 37.8522 48.4068 36.497C48.4068 35.314 47.6179 34.8463 46.2179 34.3284L43.9532 33.539C41.8661 32.801 40.2884 31.7161 40.2884 29.227C40.2884 26.5656 42.681 25.1123 45.5569 25.1123C47.3123 25.1123 48.9161 25.5549 50.1633 26.3443V28.9806C48.8651 28.0201 47.439 27.3539 45.6079 27.3539C44.029 27.3539 42.8587 27.9459 42.8587 29.1779C42.8587 30.2867 43.5966 30.7305 44.896 31.1743L47.4142 32.0606C49.8577 32.9242 50.977 34.2543 50.977 36.4479C50.977 39.2086 48.5607 40.736 45.3781 40.736C43.291 40.736 41.5096 40.1451 40.4152 39.4047V36.7183ZM56.7336 40.736H59.1996V25.1111H56.7336V40.736ZM73.1301 38.3701C76.3104 38.3701 78.0125 36.2577 78.0125 32.9242C78.0125 29.5643 76.3104 27.4531 73.1301 27.4531H69.9865V38.3701H73.1301ZM67.421 25.1123H73.2296C77.6927 25.1123 80.5769 28.166 80.5769 32.923C80.5769 37.6823 77.6927 40.736 73.2296 40.736H67.4222V25.1111L67.421 25.1123ZM95.3768 25.1123V27.4531H88.8089V31.2125H94.6969V33.5282H88.8101V38.3701H95.3768V40.736H86.3334V25.1111L95.3768 25.1123ZM104.471 32.1862H107.295C108.965 32.1862 109.909 31.2448 109.909 29.7939C109.909 28.3442 108.965 27.4017 107.295 27.4017H104.471V32.1862ZM104.471 34.399V40.736H101.955V25.1111H107.345C110.417 25.1111 112.4 26.7402 112.4 29.7939C112.4 32.4146 111.294 33.9169 108.947 34.2985L114.289 40.736H111.433L106.261 34.399H104.471ZM110.177 5.3788C110.177 7.86792 111.756 8.9528 113.841 9.69319L116.107 10.4814C117.506 10.9982 118.295 11.467 118.295 12.65C118.295 14.0052 117.049 14.6212 115.267 14.6212C113.435 14.6212 111.729 13.9801 110.305 12.8713V15.5578C111.399 16.297 113.179 16.889 115.267 16.889C118.448 16.889 120.865 15.3604 120.865 12.5998C120.865 10.4073 119.746 9.076 117.302 8.2136L114.783 7.32727C113.485 6.88232 112.747 6.43976 112.747 5.32976C112.747 4.09776 113.918 3.50688 115.495 3.50688C117.328 3.50688 118.753 4.17192 120.052 5.1336V2.49616C118.804 1.70672 117.202 1.26416 115.445 1.26416C112.569 1.26416 110.177 2.71864 110.177 5.3788ZM78.1108 1.26416V16.889H87.1554V14.5243H80.5887V9.67764H86.4779V7.36435H80.5887V3.60376H87.1554V1.26416H78.1108ZM42.9724 8.33799H45.9857C47.766 8.33799 48.7728 7.39665 48.7728 5.94576C48.7728 4.49607 47.766 3.55353 45.9857 3.55353H42.9724V8.33799ZM42.9724 10.552V16.889H40.2884V1.26416H46.0366C49.3152 1.26416 51.4307 2.89327 51.4307 5.94576C51.4307 8.56765 50.251 10.0688 47.747 10.4503L53.4443 16.889H50.399L44.8818 10.552H42.9724ZM61.8279 8.0581L68.0452 1.26416H71.3049L64.3047 8.74587L71.5323 16.889H68.1968L61.8279 9.73865V16.889H59.1996V1.26416H61.8279V8.0581ZM92.9095 1.26416H106.067V3.60616H100.824V16.8878H98.152V3.60735H92.9095V1.26416ZM24.952 12.644L27.5329 6.65984L30.1127 12.644H24.952ZM31.9439 16.889H34.5331L27.5448 1.26416L20.5564 16.889H23.122L23.9831 14.8915H31.0816L31.9439 16.889ZM13.0777 8.00906V16.8878H15.6219V1.26416L7.81155 9.59152L0 1.26416V16.889H2.54423V8.00787L7.81155 13.6212L13.0765 8.01026L13.0777 8.00906Z" fill="#1F242C"/>
</g>
<defs>
<clipPath id="clip0_1734_2151">
<rect width="122" height="42" fill="white"/>
</clipPath>
</defs>
</svg>
