<svg width="178" height="32" viewBox="0 0 178 32" fill="none" xmlns="http://www.w3.org/2000/svg">
<path d="M21.4078 16.5777C24.4881 11.7835 31.4426 14.3168 31.6796 19.6618C31.7704 21.6791 31.7704 25.6758 31.6796 28.1879C31.6796 28.1879 33.5321 28.1711 34.4226 27.8624C36.4971 27.1433 37.4775 25.313 37.8053 23.7284C39.6653 14.8299 34.2624 6.59509 25.4063 4.22407C15.4188 1.55741 5.21214 8.58349 4.3295 18.6125C3.96222 22.8018 5.06207 26.597 7.62904 29.998C7.94498 30.4154 7.83835 30.6144 7.30916 30.5951L5.32469 30.5313C5.07111 30.5226 4.82395 30.451 4.60637 30.3232C4.38879 30.1955 4.20791 30.0157 4.0807 29.8009C-2.76126 18.2125 4.00962 4.1603 17.0419 1.31393C22.1305 0.200884 27.7225 1.27914 32.0409 4.13132C37.8285 7.95161 41.5427 14.6936 40.7785 21.6849C40.1878 27.0895 37.7567 30.5835 31.6796 30.5835C30.2717 30.5835 28.7414 30.5835 28.7414 30.5835C28.7414 30.5835 28.773 23.3081 28.7177 20.0965C28.6822 18.2473 27.5389 16.4154 25.3885 16.682C23.1316 16.9603 22.6458 19.0762 22.6162 20.9313C22.5728 24.0386 22.5747 27.111 22.6221 30.1487C22.6229 30.2002 22.6132 30.2513 22.5936 30.2991C22.574 30.3469 22.5449 30.3904 22.508 30.4271C22.4711 30.4638 22.427 30.4929 22.3785 30.5128C22.33 30.5327 22.2779 30.5429 22.2252 30.5429L20.0334 30.5371C19.9439 30.5371 19.858 30.5023 19.7947 30.4403C19.7314 30.3784 19.6958 30.2943 19.6958 30.2067C19.6918 27.3197 19.6918 24.4018 19.6958 21.4531C19.6958 19.6618 19.2337 17.0125 17.036 16.711C14.5184 16.369 13.4817 18.34 13.4936 20.4907C13.5133 23.6598 13.5094 26.8791 13.4817 30.1487C13.4778 30.427 13.3356 30.5661 13.0552 30.5661H10.976C10.6837 30.5661 10.5376 30.425 10.5376 30.1429C10.4902 26.34 10.5001 22.9197 10.5672 19.882C10.6383 16.6589 12.9249 14.1893 16.2896 14.0733C18.205 14.0038 19.7076 14.8366 20.7976 16.5719C20.999 16.8927 21.2024 16.8946 21.4078 16.5777Z" fill="#1F242C"/>
<path d="M108.707 14.3065C109.406 14.0862 110.046 13.6746 110.793 13.5877C115.946 12.9848 118.446 16.1152 118.375 20.7529C118.328 23.8022 118.642 26.95 115.934 28.9616C114.505 30.0282 112.901 30.4592 111.124 30.2543C107.061 29.7848 105.236 26.8804 105.283 23.1239C105.351 17.8176 105.345 12.6601 105.266 7.65143C105.264 7.54433 105.301 7.44009 105.37 7.35728C105.44 7.27447 105.537 7.21847 105.645 7.19926L107.884 6.81665C108.196 6.76254 108.35 6.89201 108.346 7.20505L108.228 13.9587C108.227 14.0158 108.24 14.0723 108.265 14.1235C108.291 14.1747 108.329 14.2192 108.376 14.2532C108.423 14.2872 108.478 14.3098 108.535 14.319C108.593 14.3283 108.652 14.324 108.707 14.3065ZM115.147 25.2978C115.466 24.0572 115.555 22.2698 115.413 19.9355C115.176 16.0862 111.983 14.979 108.755 16.7935C108.618 16.8709 108.504 16.9816 108.424 17.1147C108.344 17.2479 108.301 17.3989 108.299 17.5529C108.271 19.7094 108.283 21.8485 108.334 23.9703C108.366 25.435 108.879 26.5075 109.874 27.1877C111.811 28.5094 114.572 27.5123 115.147 25.2978Z" fill="#1F242C"/>
<path d="M133.609 7.21701L133.597 29.4953C133.597 29.5983 133.555 29.6971 133.481 29.7699C133.406 29.8428 133.305 29.8837 133.2 29.8837L131.002 29.9011C130.897 29.9011 130.796 29.8601 130.722 29.7873C130.647 29.7145 130.605 29.6157 130.605 29.5127V7.62281C130.605 7.53178 130.638 7.44361 130.697 7.37368C130.757 7.30375 130.84 7.25651 130.931 7.2402L133.141 6.83441C133.198 6.82421 133.257 6.82645 133.313 6.84098C133.369 6.8555 133.422 6.88195 133.466 6.91846C133.511 6.95496 133.547 7.00063 133.572 7.05222C133.596 7.10382 133.609 7.16008 133.609 7.21701Z" fill="#1F242C"/>
<path d="M124.238 11.1572C125.24 11.1572 126.051 10.363 126.051 9.38329C126.051 8.40358 125.24 7.60938 124.238 7.60938C123.237 7.60938 122.426 8.40358 122.426 9.38329C122.426 10.363 123.237 11.1572 124.238 11.1572Z" fill="#1F242C"/>
<path d="M72.9377 15.9389C72.9715 16.0023 73.0223 16.0554 73.0846 16.0927C73.1469 16.13 73.2183 16.15 73.2913 16.1506C73.3643 16.1512 73.4361 16.1323 73.4991 16.0961C73.562 16.0598 73.6136 16.0075 73.6485 15.9447C75.7929 12.1824 81.1421 12.9534 83.0673 16.2752C83.6834 17.3341 83.9737 18.7815 83.9381 20.6172C83.871 23.8211 83.8651 26.7409 83.9204 29.3766C83.9283 29.7283 83.7525 29.9042 83.3932 29.9042L81.4739 29.8984C81.1066 29.8984 80.9269 29.7167 80.9348 29.3534C80.998 26.2114 80.994 22.9148 80.9229 19.4636C80.8222 14.9187 75.1236 14.8433 74.8748 19.2897C74.7484 21.4926 74.7346 24.824 74.8333 29.2839C74.8412 29.6974 74.6339 29.9042 74.2113 29.9042H72.5763C72.0985 29.9042 71.8615 29.6723 71.8655 29.2085C71.8773 26.252 71.8714 23.1641 71.8477 19.9447C71.8398 18.6269 71.4173 17.5718 70.58 16.7795C68.406 14.71 65.7521 16.8201 65.6929 19.2955C65.6139 22.422 65.6021 25.7496 65.6574 29.2781C65.6589 29.3585 65.644 29.4384 65.6135 29.5132C65.5831 29.588 65.5376 29.6562 65.4797 29.7139C65.4219 29.7716 65.3529 29.8176 65.2766 29.8492C65.2003 29.8809 65.1183 29.8976 65.0354 29.8984L63.3649 29.9042C63.2783 29.9049 63.1924 29.8888 63.1123 29.8568C63.0322 29.8247 62.9594 29.7773 62.8981 29.7174C62.8369 29.6575 62.7885 29.5863 62.7558 29.5078C62.723 29.4294 62.7065 29.3454 62.7073 29.2607C62.7192 26.0761 62.7172 22.9747 62.7014 19.9563C62.6777 16.6056 64.5318 13.7708 68.1039 13.4868C70.3312 13.309 71.9425 14.1264 72.9377 15.9389Z" fill="#1F242C"/>
<path d="M101.52 24.22C101.523 25.8205 100.876 27.3566 99.7217 28.4903C98.5673 29.624 96.9999 30.2625 95.3644 30.2653L94.3811 30.267C92.7456 30.2698 91.1759 29.6366 90.0175 28.5069C88.859 27.3771 88.2065 25.8433 88.2037 24.2427L88.1953 19.5587C88.1925 17.9582 88.8394 16.4221 89.9939 15.2884C91.1483 14.1547 92.7157 13.5162 94.3512 13.5134L95.3345 13.5117C96.97 13.5089 98.5397 14.1421 99.6982 15.2718C100.857 16.4016 101.509 17.9354 101.512 19.536L101.52 24.22ZM98.5128 19.4082C98.5128 18.5103 98.1483 17.6492 97.4995 17.0143C96.8507 16.3794 95.9708 16.0227 95.0533 16.0227H94.5794C93.6619 16.0227 92.7819 16.3794 92.1332 17.0143C91.4844 17.6492 91.1199 18.5103 91.1199 19.4082V24.3589C91.1199 24.8035 91.2094 25.2437 91.3832 25.6545C91.5571 26.0652 91.8119 26.4385 92.1332 26.7528C92.4544 27.0672 92.8358 27.3166 93.2555 27.4867C93.6752 27.6569 94.1251 27.7444 94.5794 27.7444H95.0533C95.5076 27.7444 95.9574 27.6569 96.3772 27.4867C96.7969 27.3166 97.1783 27.0672 97.4995 26.7528C97.8208 26.4385 98.0756 26.0652 98.2494 25.6545C98.4233 25.2437 98.5128 24.8035 98.5128 24.3589V19.4082Z" fill="#1F242C"/>
<path d="M166.045 15.9273C166.079 15.9829 166.126 16.0293 166.183 16.0621C166.239 16.0949 166.303 16.1131 166.369 16.1148C166.434 16.1166 166.499 16.1018 166.556 16.0721C166.613 16.0423 166.662 15.9984 166.697 15.9447C168.189 13.6684 170.338 12.9534 173.142 13.7998C176.198 14.7215 177.051 17.4809 177.016 20.507C176.976 23.5177 176.976 26.4433 177.016 29.2838C177.02 29.6858 176.816 29.8887 176.406 29.8925L174.753 29.9041C174.666 29.9049 174.579 29.8886 174.498 29.8563C174.417 29.8239 174.344 29.7761 174.282 29.7157C174.22 29.6552 174.172 29.5834 174.138 29.5042C174.105 29.4251 174.089 29.3403 174.09 29.2549C174.137 26.1476 174.139 22.9418 174.095 19.6375C174.078 17.9853 173.189 16.2346 171.359 16.0027C168.983 15.7012 167.905 18.1534 167.881 20.1128C167.842 23.2935 167.836 26.393 167.864 29.4114C167.864 29.7206 167.706 29.8771 167.39 29.8809L165.465 29.9099C165.105 29.9138 164.929 29.7399 164.937 29.3882C164.973 26.5437 164.971 23.4867 164.931 20.2172C164.914 18.5476 164.339 16.6056 162.532 16.0896C160.139 15.4056 158.747 17.678 158.741 19.6838C158.721 22.8993 158.715 26.1476 158.723 29.4288C158.723 29.5548 158.671 29.6757 158.579 29.7649C158.487 29.854 158.362 29.9041 158.232 29.9041L156.395 29.8983C156.239 29.8968 156.09 29.8357 155.98 29.7282C155.87 29.6207 155.809 29.4756 155.809 29.3244C155.797 25.9389 155.811 22.5515 155.85 19.1621C155.915 13.7998 163.231 11.0578 166.045 15.9273Z" fill="#1F242C"/>
<path d="M125.236 13.8125H123.245C122.987 13.8125 122.777 14.0175 122.777 14.2705V29.4473C122.777 29.7002 122.987 29.9053 123.245 29.9053H125.236C125.494 29.9053 125.704 29.7002 125.704 29.4473V14.2705C125.704 14.0175 125.494 13.8125 125.236 13.8125Z" fill="#1F242C"/>
<path d="M141.34 23.4862C141.334 29.3238 148.241 29.1905 148.182 23.5093C148.143 20.0852 148.137 17.0398 148.164 14.3731C148.168 14.006 148.356 13.8243 148.727 13.8282L150.759 13.8514C150.857 13.8514 150.951 13.8897 151.021 13.958C151.091 14.0263 151.131 14.1192 151.132 14.2166C151.156 18.1084 151.138 21.5364 151.079 24.5006C150.955 31.0572 141.068 32.5296 138.9 26.5354C138.509 25.4456 138.321 24.2997 138.337 23.0978C138.372 20.1953 138.374 17.3122 138.343 14.4485C138.335 14.0504 138.534 13.8514 138.941 13.8514L140.837 13.834C141.2 13.8301 141.38 14.006 141.376 14.3615C141.356 17.3528 141.344 20.3944 141.34 23.4862Z" fill="#1F242C"/>
</svg>
