<svg width="104" height="28" viewBox="0 0 104 28" fill="none" xmlns="http://www.w3.org/2000/svg">
<path d="M3.89323 9.02717C3.89323 6.27817 5.41736 4.05637 8.38538 4.05637C11.7545 4.05637 12.8775 6.08988 12.8775 8.61293V19.496H16.6476V8.01041C16.6476 3.98105 14.3615 0.855469 9.74907 0.855469C7.503 0.855469 5.21682 1.72159 3.81302 3.98105V1.38268H0.123047V19.496H3.89323V9.02717Z" fill="#1F242C"/>
<path d="M45.8457 20.4742C46.327 24.353 49.9367 27.2151 54.7499 27.2151C62.0094 27.2151 64.4159 22.7337 64.4159 18.1395V1.38189H60.6858V3.90495C59.7232 2.09739 57.7178 1.04297 54.7499 1.04297C49.4555 1.04297 45.8858 4.95936 45.8858 9.85485C45.8858 14.9763 49.6158 18.6291 54.7499 18.6291C57.6376 18.6291 59.7232 17.3111 60.6458 15.6541V18.2525C60.6458 22.1688 58.8008 24.127 54.7499 24.127C51.8219 24.127 49.7764 22.2065 49.4956 19.6835L45.8457 20.4742ZM55.3113 15.6541C51.9021 15.6541 49.7362 13.3947 49.7362 9.85485C49.7362 6.35269 51.9823 4.05557 55.3113 4.05557C58.5601 4.05557 60.8062 6.35269 60.8062 9.85485C60.8062 13.357 58.5601 15.6541 55.3113 15.6541Z" fill="#1F242C"/>
<path d="M70.4777 8.57374C70.6381 6.23898 72.5634 3.94186 75.732 3.94186C79.1411 3.94186 80.946 5.97538 81.0262 8.57374H70.4777ZM81.5878 13.281C80.8658 15.3145 79.3016 16.9337 76.1731 16.9337C72.9243 16.9337 70.4376 14.6742 70.3573 11.4357H84.8766C84.9168 11.2098 84.9569 10.7579 84.9569 10.306C84.9569 4.65735 81.6279 0.816284 75.6919 0.816284C70.8388 0.816284 66.4668 4.69502 66.4668 10.3813C66.4668 16.5195 70.9991 20.0593 76.1731 20.0593C80.6652 20.0593 83.7535 17.5363 84.8365 14.3354L81.5878 13.281Z" fill="#1F242C"/>
<path d="M91.1315 9.02717C91.1315 6.27816 92.6557 4.05636 95.6237 4.05636C98.9928 4.05636 100.116 6.08987 100.116 8.61294V19.4959H103.886V8.01042C103.886 3.98106 101.6 0.855469 96.9874 0.855469C94.7412 0.855469 92.4551 1.72159 91.0514 3.98104V1.38268H87.3613V19.4959H91.1315V9.02717Z" fill="#1F242C"/>
<path d="M22.1113 0.664062H26.1221V4.42982H22.1113V0.664062Z" fill="#1F242C"/>
<path d="M26.123 4.43359H29.9333V8.01107H26.123V4.43359Z" fill="#1F242C"/>
<path d="M29.9316 8.00781H34.3436V12.1501H29.9316V8.00781Z" fill="#1F242C"/>
<path d="M34.3457 12.1523H38.1561V15.7298H34.3457V12.1523Z" fill="#1F242C"/>
<path d="M38.1562 15.7305H42.167V19.4962H38.1562V15.7305Z" fill="#1F242C"/>
<path d="M22.1113 19.4923V15.7266H26.1221V19.4923H22.1113Z" fill="#1F242C"/>
<path d="M26.123 15.7298V12.1523H29.9333V15.7298H26.123Z" fill="#1F242C"/>
<path d="M34.3457 8.00716V4.42969H38.1561V8.00716H34.3457Z" fill="#1F242C"/>
<path d="M38.1562 4.42982V0.664063L42.167 0.664062V4.42982H38.1562Z" fill="#1F242C"/>
</svg>
