<svg width="107" height="42" viewBox="0 0 107 42" fill="none" xmlns="http://www.w3.org/2000/svg">
<path d="M12.2137 8.89502H0.930723C0.424542 8.89502 0 9.30762 0 9.81924V11.6841C0 12.1958 0.424542 12.6084 0.930723 12.6084H3.69023C4.00047 12.6084 4.2454 12.8724 4.2454 13.1861V31.5714C4.2454 32.0996 4.65361 32.5121 5.17612 32.5121H7.96828C8.47446 32.5121 8.88267 32.0996 8.899 31.5714V13.1861C8.899 12.889 9.14393 12.6249 9.45417 12.6249H12.2463C12.7525 12.6249 13.1771 12.2123 13.1771 11.6841V9.81924C13.1444 9.34062 12.7362 8.91152 12.2137 8.89502Z" fill="#1F242C"/>
<path d="M25.1136 17.3781C24.5911 15.8433 23.2521 14.952 21.6683 14.952C20.5579 14.952 19.4966 15.3812 18.6638 16.1569C18.6149 16.2063 18.5495 16.2559 18.4842 16.2724C18.4679 16.2228 18.4515 16.1403 18.4515 16.0908L18.4352 9.85235C18.4352 9.34072 18.027 8.91162 17.5045 8.91162H15.1859C14.6796 8.91162 14.2715 9.32422 14.2715 9.85235V31.588C14.2715 32.0997 14.6796 32.5122 15.1859 32.5288H17.5861C18.0923 32.5288 18.5006 32.1162 18.5169 31.588V20.1343C18.5006 19.9033 18.5169 19.7052 18.5658 19.4906C18.6965 18.8966 19.2353 18.4509 19.8558 18.4674C20.313 18.4509 20.7702 18.6984 20.9988 19.1111C21.113 19.3916 21.113 19.6557 21.113 20.3488V31.5715C21.113 32.0832 21.5213 32.5122 22.0438 32.5122H24.4441C24.9503 32.5122 25.3749 32.0997 25.3749 31.5715V19.1111C25.3749 18.5499 25.2768 17.9558 25.1136 17.3781Z" fill="#1F242C"/>
<path d="M31.3011 24.97H36.4446C36.9671 24.97 37.3753 24.5573 37.3753 24.0293V19.9692C37.3753 18.6655 37.212 18.0879 36.9181 17.4937C36.3956 16.421 34.8281 14.9851 32.0522 14.9851C30.0602 14.9851 27.8231 15.7113 26.9578 17.7908C26.6802 18.55 26.5332 19.3256 26.5332 20.1343V27.2475C26.5495 28.0067 26.6475 28.7658 26.8271 29.5086C27.2843 31.0765 28.5253 32.8588 31.9869 32.8588H32.0196C34.2565 32.8588 36.4609 32.1822 37.1304 29.7066C37.2774 29.195 37.3426 28.6668 37.2937 28.1388V27.462C37.2774 26.967 36.8691 26.5708 36.363 26.6039H34.1096C33.6034 26.6204 33.1953 27.0164 33.1788 27.5446C33.1788 27.9242 33.1462 28.2708 33.0646 28.6338C32.9503 29.1289 32.5094 29.459 32.0032 29.4261C31.4644 29.459 30.9745 29.1289 30.8275 28.6009C30.7296 28.3368 30.7296 28.1388 30.7296 27.5446V25.5311C30.7623 25.1845 31.0072 24.97 31.3011 24.97ZM30.746 19.9198C30.7296 19.6062 30.7949 19.2926 30.9092 18.9956C31.0725 18.6819 31.3338 18.4345 31.9869 18.4179C32.5584 18.4179 32.8197 18.649 32.9666 18.9295C33.0809 19.2101 33.1299 19.4907 33.1299 19.7877V21.2236C33.1299 21.5206 32.885 21.7847 32.5748 21.7847H31.2847C30.9908 21.7847 30.7296 21.5371 30.7296 21.2236V19.9198H30.746Z" fill="#1F242C"/>
<path d="M50.9761 21.7186C50.4373 21.0089 49.7842 20.3818 49.0331 19.8702L44.9347 17.0149C44.6244 16.8334 44.3468 16.5859 44.1019 16.3054C43.7263 15.7772 43.6774 14.787 43.6774 14.3743V14.1598C43.71 12.2784 44.4611 12.0638 45.3919 12.0308C46.9104 12.0473 47.041 12.8725 47.09 13.5161V15.1336C47.09 15.6617 47.4982 16.0743 48.0208 16.0743H50.7802C51.3028 16.0743 51.7109 15.6617 51.7109 15.1336V13.5987C51.7436 12.9055 51.6294 12.2288 51.3354 11.5852C50.0455 8.38342 46.29 8.39992 45.6041 8.39992C45.1469 8.39992 41.1138 8.36692 39.7422 11.3376C39.2033 12.4929 39.1707 13.9453 39.1707 14.4734V14.6054C39.1707 16.6024 39.5136 17.5431 40.0035 18.3848C40.5913 19.3585 41.0975 19.7546 41.9792 20.3653L45.9797 23.0885C46.3389 23.3195 46.6492 23.6165 46.9104 23.9466C47.3023 24.5077 47.3349 25.2835 47.3349 25.7125V25.9766C47.3349 27.5775 47.3023 28.5347 46.7798 28.9309C46.5185 29.1784 46.143 29.3269 45.4245 29.3269C44.9999 29.3434 44.5918 29.2279 44.2162 29.0299C43.5957 28.6337 43.5467 27.9406 43.5467 27.1814V24.8873C43.5467 24.3758 43.1386 23.9466 42.616 23.9466H39.9055C39.3993 23.9466 38.9748 24.3593 38.9748 24.8873V27.528C38.9421 28.3696 39.1054 29.2279 39.4646 29.9871C39.7422 30.6472 40.1668 31.2083 40.7382 31.6375C42.1588 32.7597 43.9387 32.9908 45.5715 32.9908C49.5392 33.0073 51.1722 31.2414 51.7109 29.3104C51.9559 28.3862 51.9559 27.6105 51.9559 25.8281V25.0689C51.9396 23.8476 51.8579 22.8738 50.9761 21.7186Z" fill="#1F242C"/>
<path d="M60.6593 29.6241C60.6103 29.4591 60.447 29.3271 60.2673 29.3106C60.251 29.3106 60.2347 29.3106 60.2347 29.3106C60.1368 29.3271 60.0225 29.3271 59.9408 29.3271C59.2713 29.3271 58.6345 29.2116 58.4549 28.5349C58.3569 28.2874 58.3569 28.1883 58.3569 27.6767V18.7976C58.3569 18.5005 58.6019 18.2365 58.9122 18.2365H59.7286C60.2347 18.2365 60.6593 17.8238 60.6593 17.3123V16.223C60.6593 15.7113 60.251 15.2822 59.7286 15.2822H58.8958C58.6019 15.2822 58.3406 15.0347 58.3406 14.7376V11.4699C58.3406 10.9582 57.9325 10.5291 57.4099 10.5291H55.026C54.5198 10.5291 54.0952 10.9417 54.0952 11.4699V14.7376C54.0952 15.0347 53.8504 15.2988 53.5401 15.2988H52.9523C52.4461 15.2988 52.0215 15.7113 52.0215 16.2395V17.3452C52.0215 17.8569 52.4297 18.2859 52.9523 18.2859H53.5891C53.883 18.2859 54.1442 18.55 54.1442 18.847V28.9805C54.1442 29.6406 54.1769 30.3503 54.4872 30.994C55.0096 32.1823 56.2996 32.6608 58.5202 32.6608H58.5693C58.9937 32.6608 59.4183 32.6444 59.8592 32.5783C60.3817 32.4793 60.7573 32.0338 60.7573 31.5056V30.1853C60.7736 30.0203 60.7246 29.8222 60.6593 29.6241Z" fill="#1F242C"/>
<path d="M70.1638 15.8927C70.1638 15.4306 69.7883 15.0344 69.3311 15.0015C69.2983 15.0015 69.282 15.0015 69.2331 15.0015C68.188 15.1005 67.241 15.6451 66.6205 16.5033C66.5226 16.6189 66.4572 16.7344 66.3756 16.8664V16.2062C66.3756 15.6947 65.9674 15.282 65.4612 15.282H63.0773C62.5711 15.282 62.1465 15.6947 62.1465 16.2227V31.5549C62.1465 32.0666 62.5547 32.4956 63.0609 32.4956H65.4449C65.951 32.4956 66.3756 32.0831 66.3756 31.5549V22.1806C66.3756 21.108 66.4082 19.9856 67.339 19.342C67.7472 19.0945 68.2207 18.9624 68.6943 18.9789C68.9065 18.9789 69.1024 18.9955 69.3148 19.0284C69.3637 19.0449 69.429 19.0449 69.478 19.0449C69.6576 19.0449 69.8372 18.9624 69.9679 18.8304C70.0985 18.6818 70.1801 18.4838 70.1475 18.3022V15.8927H70.1638Z" fill="#1F242C"/>
<path d="M75.5511 24.97H80.6945C81.217 24.97 81.6253 24.5408 81.6253 24.0293V19.9692C81.6253 18.6655 81.462 18.0879 81.1681 17.4937C80.6456 16.421 79.0781 14.9851 76.3022 14.9851C74.3101 14.9851 72.0731 15.7113 71.2241 17.7908C70.9302 18.55 70.7832 19.3256 70.7832 20.1343V27.2475C70.7995 28.0067 70.9138 28.7658 71.0771 29.5086C71.5343 31.0765 72.7916 32.8753 76.2696 32.8588H76.3022C78.5228 32.8588 80.7109 32.1657 81.3804 29.7066C81.511 29.195 81.56 28.6668 81.5437 28.1388V27.462C81.5274 26.967 81.1191 26.5708 80.613 26.6039H78.3596C77.8534 26.6039 77.4452 27.0164 77.4288 27.5446C77.4288 27.9242 77.3962 28.2708 77.3146 28.6338C77.2003 29.1289 76.7431 29.459 76.2532 29.4261C75.7308 29.459 75.2408 29.1289 75.0939 28.6174C74.996 28.3533 74.9959 28.1553 74.9959 27.5446V25.5311C75.0123 25.1845 75.2408 24.97 75.5511 24.97ZM76.2369 18.4345C76.8247 18.4345 77.0696 18.6655 77.2166 18.946C77.3309 19.2266 77.3962 19.5071 77.3799 19.8043V21.2401C77.3799 21.5371 77.1186 21.8012 76.8248 21.8012H75.5347C75.2408 21.8012 74.9796 21.5537 74.9796 21.2565V19.9198C74.9633 19.6062 75.0286 19.2926 75.1429 18.9956C75.3225 18.6984 75.6001 18.4345 76.2369 18.4345Z" fill="#1F242C"/>
<path d="M87.5211 24.97H92.6645C93.1708 24.97 93.5952 24.5573 93.5952 24.0293V19.9692C93.5952 18.6655 93.432 18.0879 93.138 17.4937C92.6156 16.421 91.048 14.9851 88.2722 14.9851C86.2802 14.9851 84.0431 15.7113 83.1941 17.7908C82.9165 18.55 82.7695 19.3256 82.7695 20.1343V27.2475C82.7858 28.0067 82.9001 28.7658 83.0634 29.5086C83.5206 31.0765 84.7779 32.8753 88.2558 32.8588H88.2885C90.5092 32.8588 92.6973 32.1657 93.3667 29.7066C93.4973 29.195 93.5789 28.6668 93.53 28.1388V27.462C93.5137 26.967 93.1054 26.5708 92.5992 26.6039H90.3295C89.8234 26.6039 89.4152 27.0164 89.3989 27.5446C89.3989 27.9242 89.3662 28.2708 89.2846 28.6338C89.1703 29.1289 88.7294 29.459 88.2232 29.4261C87.7007 29.459 87.2109 29.1124 87.0639 28.6009C86.9659 28.3368 86.9659 28.1388 86.9659 27.5446V25.5311C86.9822 25.2176 87.2109 24.97 87.5211 24.97ZM88.2069 18.4345C88.7947 18.4345 89.0396 18.6655 89.1866 18.946C89.3172 19.2266 89.3662 19.5071 89.3499 19.8043C89.3499 19.8373 89.3499 19.8867 89.3499 19.9198V21.2401C89.3499 21.5371 89.0887 21.8012 88.7947 21.8012H87.5211C87.2272 21.8012 86.9659 21.5537 86.9659 21.2401V19.9033C86.9496 19.5897 87.0149 19.2761 87.1292 18.979C87.2925 18.6984 87.5701 18.4345 88.2069 18.4345Z" fill="#1F242C"/>
<path d="M102.559 29.6241C102.51 29.459 102.347 29.327 102.168 29.3104H102.135C102.037 29.327 101.923 29.327 101.841 29.327C101.172 29.327 100.535 29.2114 100.355 28.5348C100.257 28.2872 100.257 28.1882 100.257 27.6766V18.7975C100.257 18.5004 100.502 18.2363 100.812 18.2363H101.645C102.151 18.2363 102.576 17.8237 102.576 17.2956V16.2063C102.576 15.6782 102.168 15.2656 101.645 15.2656H100.812C100.518 15.2656 100.257 15.018 100.257 14.7045V11.4202C100.257 10.9086 99.849 10.4795 99.3264 10.4795H96.9588C96.4527 10.4795 96.0281 10.8921 96.0281 11.4202V14.688C96.0281 14.9851 95.7832 15.2491 95.473 15.2491H94.9014C94.379 15.2491 93.9707 15.6617 93.9707 16.1898V17.2791C93.9707 17.7908 94.379 18.2198 94.9014 18.2198H95.5382C95.8322 18.2198 96.0935 18.4839 96.0935 18.7809V28.9144C96.0935 29.5745 96.1261 30.2842 96.4363 30.9279C96.9751 32.1161 98.2487 32.5947 100.469 32.5947H100.502C100.927 32.5947 101.351 32.5782 101.792 32.5122C102.315 32.4132 102.69 31.9677 102.69 31.4395V30.1191C102.641 30.0201 102.625 29.8221 102.559 29.6241Z" fill="#1F242C"/>
<path d="M105.369 32.6938C104.781 32.6772 104.29 32.1822 104.307 31.5881C104.324 30.9939 104.813 30.4988 105.401 30.5153C105.989 30.5318 106.479 31.0269 106.463 31.621C106.446 32.1987 105.972 32.6938 105.401 32.6938H105.369ZM105.369 30.5978C104.83 30.5978 104.389 31.0269 104.389 31.5881C104.389 32.1326 104.813 32.5782 105.369 32.5782C105.907 32.5782 106.348 32.1492 106.348 31.6046C106.365 31.0599 105.957 30.6143 105.418 30.5813L105.369 30.5978ZM105.369 30.8784C105.483 30.8784 105.597 30.8949 105.712 30.9278C105.842 31.0269 105.891 31.1589 105.891 31.3074C105.891 31.4725 105.793 31.621 105.646 31.6871L105.891 32.2647H105.581L105.401 31.7365H105.221V32.2647H104.944V30.8784H105.369ZM105.189 31.489H105.369C105.515 31.489 105.597 31.4395 105.597 31.3074C105.597 31.1754 105.548 31.1425 105.385 31.1425H105.206V31.5055H105.189V31.489Z" fill="#1F242C"/>
</svg>
