<svg width="182" height="32" viewBox="0 0 182 32" fill="none" xmlns="http://www.w3.org/2000/svg">
<g clip-path="url(#clip0_1951_635)">
<path d="M44.8 12.4V10H46.88V6.48H49.44V10H54.56V12.4H49.44V23.6H54.72V26H46.88V12.4H44.8ZM59.3355 23.952C57.7568 22.3733 56.9675 20.3893 56.9675 18C56.9675 15.6107 57.7568 13.6267 59.3355 12.048C60.9142 10.4693 62.8982 9.68 65.2875 9.68C67.6768 9.68 69.6608 10.4693 71.2395 12.048C72.8182 13.6267 73.6075 15.6107 73.6075 18C73.6075 20.3893 72.8182 22.3733 71.2395 23.952C69.6608 25.5307 67.6768 26.32 65.2875 26.32C62.8982 26.32 60.9142 25.5307 59.3355 23.952ZM61.1595 13.744C60.0715 14.8533 59.5275 16.272 59.5275 18C59.5275 19.728 60.0715 21.1467 61.1595 22.256C62.2475 23.3653 63.6235 23.92 65.2875 23.92C66.9515 23.92 68.3275 23.3653 69.4155 22.256C70.5035 21.1467 71.0475 19.728 71.0475 18C71.0475 16.272 70.5035 14.8533 69.4155 13.744C68.3275 12.6347 66.9515 12.08 65.2875 12.08C63.6235 12.08 62.2475 12.6347 61.1595 13.744ZM77.115 26V3.6H79.675V16.4H82.875L87.995 10H91.035L85.115 17.52L91.515 26H88.315L82.875 18.8H79.675V26H77.115ZM93.9595 6.448C93.6182 6.10667 93.4475 5.69067 93.4475 5.2C93.4475 4.70933 93.6182 4.29333 93.9595 3.952C94.3008 3.61067 94.7168 3.44 95.2075 3.44C95.6982 3.44 96.1142 3.61067 96.4555 3.952C96.7968 4.29333 96.9675 4.70933 96.9675 5.2C96.9675 5.69067 96.7968 6.10667 96.4555 6.448C96.1142 6.78933 95.6982 6.96 95.2075 6.96C94.7168 6.96 94.3008 6.78933 93.9595 6.448ZM93.9275 26V10H96.4875V26H93.9275ZM100.959 26V10H103.519V12.4H103.551C103.871 11.888 104.287 11.44 104.799 11.056C105.972 10.1387 107.359 9.68 108.959 9.68C110.9 9.68 112.447 10.2987 113.599 11.536C114.772 12.752 115.359 14.4267 115.359 16.56V26H112.799V16.72C112.799 15.184 112.415 14.032 111.647 13.264C110.879 12.4747 109.823 12.08 108.479 12.08C107.007 12.08 105.812 12.5707 104.895 13.552C103.977 14.512 103.519 15.7813 103.519 17.36V26H100.959ZM118.078 10H120.798L124.478 23.6H127.198L130.878 10H133.597L129.118 26H122.558L118.078 10ZM137.866 23.952C136.309 22.3733 135.53 20.3893 135.53 18C135.53 15.6107 136.309 13.6267 137.866 12.048C139.423 10.4693 141.365 9.68 143.69 9.68C146.015 9.68 147.957 10.4587 149.514 12.016C151.071 13.5733 151.85 15.5147 151.85 17.84V18.8H138.09C138.261 20.2933 138.869 21.52 139.914 22.48C140.959 23.44 142.218 23.92 143.69 23.92C145.269 23.92 146.623 23.44 147.754 22.48C148.266 22.0533 148.671 21.5733 148.97 21.04H151.53C151.146 22.0427 150.602 22.928 149.898 23.696C148.234 25.4453 146.165 26.32 143.69 26.32C141.365 26.32 139.423 25.5307 137.866 23.952ZM138.154 16.56H149.13C148.938 15.3013 148.351 14.2453 147.37 13.392C146.389 12.5173 145.162 12.08 143.69 12.08C142.218 12.08 140.981 12.5173 139.978 13.392C138.975 14.2453 138.367 15.3013 138.154 16.56ZM154.245 21.04H156.965C157.2 21.616 157.509 22.096 157.893 22.48C158.853 23.44 160.09 23.92 161.605 23.92C162.97 23.92 163.973 23.696 164.613 23.248C165.274 22.8 165.605 22.224 165.605 21.52C165.605 21.136 165.466 20.8053 165.189 20.528C164.933 20.2507 164.506 20.0053 163.909 19.792C163.312 19.5787 162.778 19.4187 162.309 19.312C161.861 19.184 161.2 19.0347 160.325 18.864C156.805 18.1387 155.045 16.5707 155.045 14.16C155.045 12.9013 155.578 11.8453 156.645 10.992C157.712 10.1173 159.205 9.68 161.125 9.68C163.514 9.68 165.402 10.48 166.789 12.08C167.344 12.8053 167.749 13.6053 168.005 14.48H165.285C165.093 14.0533 164.816 13.6587 164.453 13.296C163.642 12.4853 162.533 12.08 161.125 12.08C159.994 12.08 159.12 12.2933 158.501 12.72C157.904 13.1467 157.605 13.6267 157.605 14.16C157.605 14.544 157.733 14.8747 157.989 15.152C158.266 15.4293 158.704 15.6747 159.301 15.888C159.898 16.1013 160.421 16.272 160.869 16.4C161.338 16.5067 162.01 16.6453 162.885 16.816C166.405 17.5413 168.165 19.1093 168.165 21.52C168.165 22.8853 167.589 24.0267 166.437 24.944C165.285 25.8613 163.674 26.32 161.605 26.32C159.002 26.32 156.997 25.4453 155.589 23.696C154.992 22.928 154.544 22.0427 154.245 21.04ZM170.238 12.4V10H172.318V6.48H174.878V10H179.998V12.4H174.878V23.6H180.158V26H172.318V12.4H170.238Z" fill="#181928"/>
</g>
<path fill-rule="evenodd" clip-rule="evenodd" d="M24 0H28C30.2091 0 32 1.79086 32 4V8L24 0ZM32 16V24V28L4 0H8H16L32 16ZM24 32H28L16 20L4 32H8H16H24ZM0 28V24V16V8V4L12 16L0 28Z" fill="#181928"/>
<defs>
<clipPath id="clip0_1951_635">
<rect width="138" height="32" fill="white" transform="translate(44)"/>
</clipPath>
</defs>
</svg>
